G04 #@! TF.FileFunction,Legend,Top*
%FSLAX46Y46*%
G04 Gerber Fmt 4.6, Leading zero omitted, Abs format (unit mm)*
G04 Created by KiCad (PCBNEW 4.0.0-rc1-stable) date 12/18/2015 1:35:38 PM*
%MOMM*%
G01*
G04 APERTURE LIST*
%ADD10C,0.100000*%
%ADD11C,0.200000*%
%ADD12C,0.212500*%
%ADD13C,0.175000*%
%ADD14C,0.375000*%
%ADD15C,0.300000*%
%ADD16C,0.250000*%
%ADD17C,0.150000*%
G04 APERTURE END LIST*
D10*
D11*
X62600000Y-127200000D02*
X63300000Y-127200000D01*
X62600000Y-121300000D02*
X62600000Y-127200000D01*
X62800000Y-121300000D02*
X62600000Y-121300000D01*
X62800000Y-127200000D02*
X62800000Y-121300000D01*
X63000000Y-127200000D02*
X62800000Y-127200000D01*
X63000000Y-121300000D02*
X63000000Y-127200000D01*
X63200000Y-121300000D02*
X63000000Y-121300000D01*
X62700000Y-118700000D02*
X63300000Y-118700000D01*
X62700000Y-112800000D02*
X62700000Y-118700000D01*
X62900000Y-112800000D02*
X62700000Y-112800000D01*
X62900000Y-118700000D02*
X62900000Y-112800000D01*
X63100000Y-118700000D02*
X62900000Y-118700000D01*
X63100000Y-112800000D02*
X63100000Y-118700000D01*
X63300000Y-112800000D02*
X63100000Y-112800000D01*
X63300000Y-112800000D02*
X63300000Y-118700000D01*
X71800000Y-112800000D02*
X63300000Y-112800000D01*
X71800000Y-118700000D02*
X71800000Y-112800000D01*
X63300000Y-118700000D02*
X71800000Y-118700000D01*
X63200000Y-127200000D02*
X63200000Y-121300000D01*
X76900000Y-127200000D02*
X63200000Y-127200000D01*
X76900000Y-121300000D02*
X76900000Y-127200000D01*
X63200000Y-121300000D02*
X76900000Y-121300000D01*
D12*
X78660714Y-131634524D02*
X78255952Y-131634524D01*
X78255952Y-130784524D01*
X78944047Y-131189286D02*
X79227380Y-131189286D01*
X79348809Y-131634524D02*
X78944047Y-131634524D01*
X78944047Y-130784524D01*
X79348809Y-130784524D01*
X79713095Y-131634524D02*
X79713095Y-130784524D01*
X79915476Y-130784524D01*
X80036904Y-130825000D01*
X80117857Y-130905952D01*
X80158333Y-130986905D01*
X80198809Y-131148810D01*
X80198809Y-131270238D01*
X80158333Y-131432143D01*
X80117857Y-131513095D01*
X80036904Y-131594048D01*
X79915476Y-131634524D01*
X79713095Y-131634524D01*
X80522619Y-130865476D02*
X80563095Y-130825000D01*
X80644047Y-130784524D01*
X80846428Y-130784524D01*
X80927381Y-130825000D01*
X80967857Y-130865476D01*
X81008333Y-130946429D01*
X81008333Y-131027381D01*
X80967857Y-131148810D01*
X80482143Y-131634524D01*
X81008333Y-131634524D01*
X82465476Y-130825000D02*
X82384524Y-130784524D01*
X82263095Y-130784524D01*
X82141667Y-130825000D01*
X82060714Y-130905952D01*
X82020238Y-130986905D01*
X81979762Y-131148810D01*
X81979762Y-131270238D01*
X82020238Y-131432143D01*
X82060714Y-131513095D01*
X82141667Y-131594048D01*
X82263095Y-131634524D01*
X82344047Y-131634524D01*
X82465476Y-131594048D01*
X82505952Y-131553571D01*
X82505952Y-131270238D01*
X82344047Y-131270238D01*
X83355952Y-131634524D02*
X83072619Y-131229762D01*
X82870238Y-131634524D02*
X82870238Y-130784524D01*
X83194047Y-130784524D01*
X83275000Y-130825000D01*
X83315476Y-130865476D01*
X83355952Y-130946429D01*
X83355952Y-131067857D01*
X83315476Y-131148810D01*
X83275000Y-131189286D01*
X83194047Y-131229762D01*
X82870238Y-131229762D01*
X83720238Y-131189286D02*
X84003571Y-131189286D01*
X84125000Y-131634524D02*
X83720238Y-131634524D01*
X83720238Y-130784524D01*
X84125000Y-130784524D01*
X84489286Y-131189286D02*
X84772619Y-131189286D01*
X84894048Y-131634524D02*
X84489286Y-131634524D01*
X84489286Y-130784524D01*
X84894048Y-130784524D01*
X85258334Y-131634524D02*
X85258334Y-130784524D01*
X85744048Y-131634524D01*
X85744048Y-130784524D01*
X78990476Y-138134524D02*
X78585714Y-138134524D01*
X78585714Y-137284524D01*
X79273809Y-137689286D02*
X79557142Y-137689286D01*
X79678571Y-138134524D02*
X79273809Y-138134524D01*
X79273809Y-137284524D01*
X79678571Y-137284524D01*
X80042857Y-138134524D02*
X80042857Y-137284524D01*
X80245238Y-137284524D01*
X80366666Y-137325000D01*
X80447619Y-137405952D01*
X80488095Y-137486905D01*
X80528571Y-137648810D01*
X80528571Y-137770238D01*
X80488095Y-137932143D01*
X80447619Y-138013095D01*
X80366666Y-138094048D01*
X80245238Y-138134524D01*
X80042857Y-138134524D01*
X81338095Y-138134524D02*
X80852381Y-138134524D01*
X81095238Y-138134524D02*
X81095238Y-137284524D01*
X81014286Y-137405952D01*
X80933333Y-137486905D01*
X80852381Y-137527381D01*
X82835714Y-138134524D02*
X82552381Y-137729762D01*
X82350000Y-138134524D02*
X82350000Y-137284524D01*
X82673809Y-137284524D01*
X82754762Y-137325000D01*
X82795238Y-137365476D01*
X82835714Y-137446429D01*
X82835714Y-137567857D01*
X82795238Y-137648810D01*
X82754762Y-137689286D01*
X82673809Y-137729762D01*
X82350000Y-137729762D01*
X83200000Y-137689286D02*
X83483333Y-137689286D01*
X83604762Y-138134524D02*
X83200000Y-138134524D01*
X83200000Y-137284524D01*
X83604762Y-137284524D01*
X83969048Y-138134524D02*
X83969048Y-137284524D01*
X84171429Y-137284524D01*
X84292857Y-137325000D01*
X84373810Y-137405952D01*
X84414286Y-137486905D01*
X84454762Y-137648810D01*
X84454762Y-137770238D01*
X84414286Y-137932143D01*
X84373810Y-138013095D01*
X84292857Y-138094048D01*
X84171429Y-138134524D01*
X83969048Y-138134524D01*
D13*
X91094048Y-131284524D02*
X90608334Y-131284524D01*
X90851191Y-131284524D02*
X90851191Y-130434524D01*
X90770239Y-130555952D01*
X90689286Y-130636905D01*
X90608334Y-130677381D01*
X91417858Y-130515476D02*
X91458334Y-130475000D01*
X91539286Y-130434524D01*
X91741667Y-130434524D01*
X91822620Y-130475000D01*
X91863096Y-130515476D01*
X91903572Y-130596429D01*
X91903572Y-130677381D01*
X91863096Y-130798810D01*
X91377382Y-131284524D01*
X91903572Y-131284524D01*
X92429763Y-130434524D02*
X92510715Y-130434524D01*
X92591667Y-130475000D01*
X92632144Y-130515476D01*
X92672620Y-130596429D01*
X92713096Y-130758333D01*
X92713096Y-130960714D01*
X92672620Y-131122619D01*
X92632144Y-131203571D01*
X92591667Y-131244048D01*
X92510715Y-131284524D01*
X92429763Y-131284524D01*
X92348810Y-131244048D01*
X92308334Y-131203571D01*
X92267858Y-131122619D01*
X92227382Y-130960714D01*
X92227382Y-130758333D01*
X92267858Y-130596429D01*
X92308334Y-130515476D01*
X92348810Y-130475000D01*
X92429763Y-130434524D01*
X93198811Y-131284524D02*
X93117858Y-131244048D01*
X93077382Y-131203571D01*
X93036906Y-131122619D01*
X93036906Y-130879762D01*
X93077382Y-130798810D01*
X93117858Y-130758333D01*
X93198811Y-130717857D01*
X93320239Y-130717857D01*
X93401191Y-130758333D01*
X93441668Y-130798810D01*
X93482144Y-130879762D01*
X93482144Y-131122619D01*
X93441668Y-131203571D01*
X93401191Y-131244048D01*
X93320239Y-131284524D01*
X93198811Y-131284524D01*
X93846430Y-131284524D02*
X93846430Y-130434524D01*
X94210716Y-131284524D02*
X94210716Y-130839286D01*
X94170239Y-130758333D01*
X94089287Y-130717857D01*
X93967859Y-130717857D01*
X93886906Y-130758333D01*
X93846430Y-130798810D01*
X94615478Y-131284524D02*
X94615478Y-130717857D01*
X94615478Y-130798810D02*
X94655954Y-130758333D01*
X94736907Y-130717857D01*
X94858335Y-130717857D01*
X94939287Y-130758333D01*
X94979764Y-130839286D01*
X94979764Y-131284524D01*
X94979764Y-130839286D02*
X95020240Y-130758333D01*
X95101192Y-130717857D01*
X95222621Y-130717857D01*
X95303573Y-130758333D01*
X95344049Y-130839286D01*
X95344049Y-131284524D01*
X96275001Y-130434524D02*
X96760716Y-130434524D01*
X96517859Y-131284524D02*
X96517859Y-130434524D01*
X97367858Y-131244048D02*
X97286906Y-131284524D01*
X97125001Y-131284524D01*
X97044049Y-131244048D01*
X97003573Y-131163095D01*
X97003573Y-130839286D01*
X97044049Y-130758333D01*
X97125001Y-130717857D01*
X97286906Y-130717857D01*
X97367858Y-130758333D01*
X97408335Y-130839286D01*
X97408335Y-130920238D01*
X97003573Y-131001190D01*
X97772620Y-131284524D02*
X97772620Y-130717857D01*
X97772620Y-130879762D02*
X97813096Y-130798810D01*
X97853572Y-130758333D01*
X97934525Y-130717857D01*
X98015477Y-130717857D01*
X98298810Y-131284524D02*
X98298810Y-130717857D01*
X98298810Y-130798810D02*
X98339286Y-130758333D01*
X98420239Y-130717857D01*
X98541667Y-130717857D01*
X98622619Y-130758333D01*
X98663096Y-130839286D01*
X98663096Y-131284524D01*
X98663096Y-130839286D02*
X98703572Y-130758333D01*
X98784524Y-130717857D01*
X98905953Y-130717857D01*
X98986905Y-130758333D01*
X99027381Y-130839286D01*
X99027381Y-131284524D01*
X99432143Y-131284524D02*
X99432143Y-130717857D01*
X99432143Y-130434524D02*
X99391667Y-130475000D01*
X99432143Y-130515476D01*
X99472619Y-130475000D01*
X99432143Y-130434524D01*
X99432143Y-130515476D01*
X99836905Y-130717857D02*
X99836905Y-131284524D01*
X99836905Y-130798810D02*
X99877381Y-130758333D01*
X99958334Y-130717857D01*
X100079762Y-130717857D01*
X100160714Y-130758333D01*
X100201191Y-130839286D01*
X100201191Y-131284524D01*
X100970239Y-131284524D02*
X100970239Y-130839286D01*
X100929762Y-130758333D01*
X100848810Y-130717857D01*
X100686905Y-130717857D01*
X100605953Y-130758333D01*
X100970239Y-131244048D02*
X100889286Y-131284524D01*
X100686905Y-131284524D01*
X100605953Y-131244048D01*
X100565477Y-131163095D01*
X100565477Y-131082143D01*
X100605953Y-131001190D01*
X100686905Y-130960714D01*
X100889286Y-130960714D01*
X100970239Y-130920238D01*
X101253572Y-130717857D02*
X101577382Y-130717857D01*
X101375001Y-130434524D02*
X101375001Y-131163095D01*
X101415477Y-131244048D01*
X101496430Y-131284524D01*
X101577382Y-131284524D01*
X101982144Y-131284524D02*
X101901191Y-131244048D01*
X101860715Y-131203571D01*
X101820239Y-131122619D01*
X101820239Y-130879762D01*
X101860715Y-130798810D01*
X101901191Y-130758333D01*
X101982144Y-130717857D01*
X102103572Y-130717857D01*
X102184524Y-130758333D01*
X102225001Y-130798810D01*
X102265477Y-130879762D01*
X102265477Y-131122619D01*
X102225001Y-131203571D01*
X102184524Y-131244048D01*
X102103572Y-131284524D01*
X101982144Y-131284524D01*
X102629763Y-131284524D02*
X102629763Y-130717857D01*
X102629763Y-130879762D02*
X102670239Y-130798810D01*
X102710715Y-130758333D01*
X102791668Y-130717857D01*
X102872620Y-130717857D01*
X51909524Y-132519524D02*
X51452381Y-132519524D01*
X51680952Y-132519524D02*
X51680952Y-131669524D01*
X51604762Y-131790952D01*
X51528571Y-131871905D01*
X51452381Y-131912381D01*
X52214286Y-131750476D02*
X52252381Y-131710000D01*
X52328572Y-131669524D01*
X52519048Y-131669524D01*
X52595238Y-131710000D01*
X52633334Y-131750476D01*
X52671429Y-131831429D01*
X52671429Y-131912381D01*
X52633334Y-132033810D01*
X52176191Y-132519524D01*
X52671429Y-132519524D01*
X53166667Y-131669524D02*
X53242858Y-131669524D01*
X53319048Y-131710000D01*
X53357143Y-131750476D01*
X53395239Y-131831429D01*
X53433334Y-131993333D01*
X53433334Y-132195714D01*
X53395239Y-132357619D01*
X53357143Y-132438571D01*
X53319048Y-132479048D01*
X53242858Y-132519524D01*
X53166667Y-132519524D01*
X53090477Y-132479048D01*
X53052381Y-132438571D01*
X53014286Y-132357619D01*
X52976191Y-132195714D01*
X52976191Y-131993333D01*
X53014286Y-131831429D01*
X53052381Y-131750476D01*
X53090477Y-131710000D01*
X53166667Y-131669524D01*
X53890477Y-132519524D02*
X53814286Y-132479048D01*
X53776191Y-132438571D01*
X53738096Y-132357619D01*
X53738096Y-132114762D01*
X53776191Y-132033810D01*
X53814286Y-131993333D01*
X53890477Y-131952857D01*
X54004763Y-131952857D01*
X54080953Y-131993333D01*
X54119048Y-132033810D01*
X54157144Y-132114762D01*
X54157144Y-132357619D01*
X54119048Y-132438571D01*
X54080953Y-132479048D01*
X54004763Y-132519524D01*
X53890477Y-132519524D01*
X54500001Y-132519524D02*
X54500001Y-131669524D01*
X54842858Y-132519524D02*
X54842858Y-132074286D01*
X54804763Y-131993333D01*
X54728573Y-131952857D01*
X54614287Y-131952857D01*
X54538096Y-131993333D01*
X54500001Y-132033810D01*
X55223811Y-132519524D02*
X55223811Y-131952857D01*
X55223811Y-132033810D02*
X55261906Y-131993333D01*
X55338097Y-131952857D01*
X55452383Y-131952857D01*
X55528573Y-131993333D01*
X55566668Y-132074286D01*
X55566668Y-132519524D01*
X55566668Y-132074286D02*
X55604764Y-131993333D01*
X55680954Y-131952857D01*
X55795240Y-131952857D01*
X55871430Y-131993333D01*
X55909525Y-132074286D01*
X55909525Y-132519524D01*
X51376190Y-134399524D02*
X51833333Y-134399524D01*
X51604762Y-135249524D02*
X51604762Y-134399524D01*
X52404762Y-135209048D02*
X52328572Y-135249524D01*
X52176191Y-135249524D01*
X52100000Y-135209048D01*
X52061905Y-135128095D01*
X52061905Y-134804286D01*
X52100000Y-134723333D01*
X52176191Y-134682857D01*
X52328572Y-134682857D01*
X52404762Y-134723333D01*
X52442857Y-134804286D01*
X52442857Y-134885238D01*
X52061905Y-134966190D01*
X52785714Y-135249524D02*
X52785714Y-134682857D01*
X52785714Y-134844762D02*
X52823809Y-134763810D01*
X52861905Y-134723333D01*
X52938095Y-134682857D01*
X53014286Y-134682857D01*
X53280952Y-135249524D02*
X53280952Y-134682857D01*
X53280952Y-134763810D02*
X53319047Y-134723333D01*
X53395238Y-134682857D01*
X53509524Y-134682857D01*
X53585714Y-134723333D01*
X53623809Y-134804286D01*
X53623809Y-135249524D01*
X53623809Y-134804286D02*
X53661905Y-134723333D01*
X53738095Y-134682857D01*
X53852381Y-134682857D01*
X53928571Y-134723333D01*
X53966666Y-134804286D01*
X53966666Y-135249524D01*
X54347619Y-135249524D02*
X54347619Y-134682857D01*
X54347619Y-134399524D02*
X54309524Y-134440000D01*
X54347619Y-134480476D01*
X54385714Y-134440000D01*
X54347619Y-134399524D01*
X54347619Y-134480476D01*
X54728571Y-134682857D02*
X54728571Y-135249524D01*
X54728571Y-134763810D02*
X54766666Y-134723333D01*
X54842857Y-134682857D01*
X54957143Y-134682857D01*
X55033333Y-134723333D01*
X55071428Y-134804286D01*
X55071428Y-135249524D01*
X55795238Y-135249524D02*
X55795238Y-134804286D01*
X55757143Y-134723333D01*
X55680953Y-134682857D01*
X55528572Y-134682857D01*
X55452381Y-134723333D01*
X55795238Y-135209048D02*
X55719048Y-135249524D01*
X55528572Y-135249524D01*
X55452381Y-135209048D01*
X55414286Y-135128095D01*
X55414286Y-135047143D01*
X55452381Y-134966190D01*
X55528572Y-134925714D01*
X55719048Y-134925714D01*
X55795238Y-134885238D01*
X56061905Y-134682857D02*
X56366667Y-134682857D01*
X56176191Y-134399524D02*
X56176191Y-135128095D01*
X56214286Y-135209048D01*
X56290477Y-135249524D01*
X56366667Y-135249524D01*
X56747620Y-135249524D02*
X56671429Y-135209048D01*
X56633334Y-135168571D01*
X56595239Y-135087619D01*
X56595239Y-134844762D01*
X56633334Y-134763810D01*
X56671429Y-134723333D01*
X56747620Y-134682857D01*
X56861906Y-134682857D01*
X56938096Y-134723333D01*
X56976191Y-134763810D01*
X57014287Y-134844762D01*
X57014287Y-135087619D01*
X56976191Y-135168571D01*
X56938096Y-135209048D01*
X56861906Y-135249524D01*
X56747620Y-135249524D01*
X57357144Y-135249524D02*
X57357144Y-134682857D01*
X57357144Y-134844762D02*
X57395239Y-134763810D01*
X57433335Y-134723333D01*
X57509525Y-134682857D01*
X57585716Y-134682857D01*
D14*
X106314286Y-160004762D02*
X106409524Y-160100000D01*
X106504762Y-160385715D01*
X106504762Y-160576191D01*
X106409524Y-160861905D01*
X106219048Y-161052381D01*
X106028571Y-161147620D01*
X105647619Y-161242858D01*
X105361905Y-161242858D01*
X104980952Y-161147620D01*
X104790476Y-161052381D01*
X104600000Y-160861905D01*
X104504762Y-160576191D01*
X104504762Y-160385715D01*
X104600000Y-160100000D01*
X104695238Y-160004762D01*
X105933333Y-159242858D02*
X105933333Y-158290477D01*
X106504762Y-159433334D02*
X104504762Y-158766667D01*
X106504762Y-158100000D01*
X106504762Y-156290476D02*
X105552381Y-156957143D01*
X106504762Y-157433334D02*
X104504762Y-157433334D01*
X104504762Y-156671429D01*
X104600000Y-156480953D01*
X104695238Y-156385714D01*
X104885714Y-156290476D01*
X105171429Y-156290476D01*
X105361905Y-156385714D01*
X105457143Y-156480953D01*
X105552381Y-156671429D01*
X105552381Y-157433334D01*
X106314286Y-152766666D02*
X106409524Y-152861904D01*
X106504762Y-153147619D01*
X106504762Y-153338095D01*
X106409524Y-153623809D01*
X106219048Y-153814285D01*
X106028571Y-153909524D01*
X105647619Y-154004762D01*
X105361905Y-154004762D01*
X104980952Y-153909524D01*
X104790476Y-153814285D01*
X104600000Y-153623809D01*
X104504762Y-153338095D01*
X104504762Y-153147619D01*
X104600000Y-152861904D01*
X104695238Y-152766666D01*
X105933333Y-152004762D02*
X105933333Y-151052381D01*
X106504762Y-152195238D02*
X104504762Y-151528571D01*
X106504762Y-150861904D01*
X106504762Y-150195238D02*
X104504762Y-150195238D01*
X106504762Y-149052380D01*
X104504762Y-149052380D01*
D15*
X54850000Y-109142857D02*
X54778571Y-109285714D01*
X54778571Y-109500000D01*
X54850000Y-109714285D01*
X54992857Y-109857143D01*
X55135714Y-109928571D01*
X55421429Y-110000000D01*
X55635714Y-110000000D01*
X55921429Y-109928571D01*
X56064286Y-109857143D01*
X56207143Y-109714285D01*
X56278571Y-109500000D01*
X56278571Y-109357143D01*
X56207143Y-109142857D01*
X56135714Y-109071428D01*
X55635714Y-109071428D01*
X55635714Y-109357143D01*
X56278571Y-108428571D02*
X54778571Y-108428571D01*
X56278571Y-107571428D01*
X54778571Y-107571428D01*
X56278571Y-106857142D02*
X54778571Y-106857142D01*
X54778571Y-106499999D01*
X54850000Y-106285714D01*
X54992857Y-106142856D01*
X55135714Y-106071428D01*
X55421429Y-105999999D01*
X55635714Y-105999999D01*
X55921429Y-106071428D01*
X56064286Y-106142856D01*
X56207143Y-106285714D01*
X56278571Y-106499999D01*
X56278571Y-106857142D01*
D16*
X73242857Y-111502381D02*
X73242857Y-110502381D01*
X73623810Y-110502381D01*
X73719048Y-110550000D01*
X73766667Y-110597619D01*
X73814286Y-110692857D01*
X73814286Y-110835714D01*
X73766667Y-110930952D01*
X73719048Y-110978571D01*
X73623810Y-111026190D01*
X73242857Y-111026190D01*
X74385714Y-111502381D02*
X74290476Y-111454762D01*
X74242857Y-111407143D01*
X74195238Y-111311905D01*
X74195238Y-111026190D01*
X74242857Y-110930952D01*
X74290476Y-110883333D01*
X74385714Y-110835714D01*
X74528572Y-110835714D01*
X74623810Y-110883333D01*
X74671429Y-110930952D01*
X74719048Y-111026190D01*
X74719048Y-111311905D01*
X74671429Y-111407143D01*
X74623810Y-111454762D01*
X74528572Y-111502381D01*
X74385714Y-111502381D01*
X75052381Y-110835714D02*
X75242857Y-111502381D01*
X75433334Y-111026190D01*
X75623810Y-111502381D01*
X75814286Y-110835714D01*
X76576191Y-111454762D02*
X76480953Y-111502381D01*
X76290476Y-111502381D01*
X76195238Y-111454762D01*
X76147619Y-111359524D01*
X76147619Y-110978571D01*
X76195238Y-110883333D01*
X76290476Y-110835714D01*
X76480953Y-110835714D01*
X76576191Y-110883333D01*
X76623810Y-110978571D01*
X76623810Y-111073810D01*
X76147619Y-111169048D01*
X77052381Y-111502381D02*
X77052381Y-110835714D01*
X77052381Y-111026190D02*
X77100000Y-110930952D01*
X77147619Y-110883333D01*
X77242857Y-110835714D01*
X77338096Y-110835714D01*
X73980952Y-112152381D02*
X73980952Y-112342857D01*
X74361905Y-112152381D02*
X74361905Y-112342857D01*
X74980952Y-112152381D02*
X75171429Y-112152381D01*
X75266667Y-112200000D01*
X75361905Y-112295238D01*
X75409524Y-112485714D01*
X75409524Y-112819048D01*
X75361905Y-113009524D01*
X75266667Y-113104762D01*
X75171429Y-113152381D01*
X74980952Y-113152381D01*
X74885714Y-113104762D01*
X74790476Y-113009524D01*
X74742857Y-112819048D01*
X74742857Y-112485714D01*
X74790476Y-112295238D01*
X74885714Y-112200000D01*
X74980952Y-112152381D01*
X75838095Y-113152381D02*
X75838095Y-112152381D01*
X76409524Y-113152381D01*
X76409524Y-112152381D01*
X76838095Y-112152381D02*
X76838095Y-112342857D01*
X77219048Y-112152381D02*
X77219048Y-112342857D01*
X74957143Y-114802381D02*
X74480952Y-114802381D01*
X74480952Y-113802381D01*
X75290476Y-114278571D02*
X75623810Y-114278571D01*
X75766667Y-114802381D02*
X75290476Y-114802381D01*
X75290476Y-113802381D01*
X75766667Y-113802381D01*
X76195238Y-114802381D02*
X76195238Y-113802381D01*
X76433333Y-113802381D01*
X76576191Y-113850000D01*
X76671429Y-113945238D01*
X76719048Y-114040476D01*
X76766667Y-114230952D01*
X76766667Y-114373810D01*
X76719048Y-114564286D01*
X76671429Y-114659524D01*
X76576191Y-114754762D01*
X76433333Y-114802381D01*
X76195238Y-114802381D01*
D14*
X43704762Y-160500001D02*
X41704762Y-160500001D01*
X41704762Y-159833334D02*
X43704762Y-159166667D01*
X41704762Y-158500000D01*
X43704762Y-157833334D02*
X41704762Y-157833334D01*
X43514286Y-154214285D02*
X43609524Y-154309523D01*
X43704762Y-154595238D01*
X43704762Y-154785714D01*
X43609524Y-155071428D01*
X43419048Y-155261904D01*
X43228571Y-155357143D01*
X42847619Y-155452381D01*
X42561905Y-155452381D01*
X42180952Y-155357143D01*
X41990476Y-155261904D01*
X41800000Y-155071428D01*
X41704762Y-154785714D01*
X41704762Y-154595238D01*
X41800000Y-154309523D01*
X41895238Y-154214285D01*
X43133333Y-153452381D02*
X43133333Y-152500000D01*
X43704762Y-153642857D02*
X41704762Y-152976190D01*
X43704762Y-152309523D01*
X43704762Y-151642857D02*
X41704762Y-151642857D01*
X43704762Y-150499999D01*
X41704762Y-150499999D01*
D13*
X102516667Y-148933332D02*
X102516667Y-148599998D01*
X102716667Y-148999998D02*
X102016667Y-148766665D01*
X102716667Y-148533332D01*
X101983333Y-147799998D02*
X102883333Y-148399998D01*
X102350000Y-147333332D02*
X102383333Y-147233332D01*
X102416667Y-147199999D01*
X102483333Y-147166665D01*
X102583333Y-147166665D01*
X102650000Y-147199999D01*
X102683333Y-147233332D01*
X102716667Y-147299999D01*
X102716667Y-147566665D01*
X102016667Y-147566665D01*
X102016667Y-147333332D01*
X102050000Y-147266665D01*
X102083333Y-147233332D01*
X102150000Y-147199999D01*
X102216667Y-147199999D01*
X102283333Y-147233332D01*
X102316667Y-147266665D01*
X102350000Y-147333332D01*
X102350000Y-147566665D01*
X102716667Y-145999999D02*
X102716667Y-146333332D01*
X102016667Y-146333332D01*
X102016667Y-145633332D02*
X102016667Y-145499999D01*
X102050000Y-145433332D01*
X102116667Y-145366665D01*
X102250000Y-145333332D01*
X102483333Y-145333332D01*
X102616667Y-145366665D01*
X102683333Y-145433332D01*
X102716667Y-145499999D01*
X102716667Y-145633332D01*
X102683333Y-145699999D01*
X102616667Y-145766665D01*
X102483333Y-145799999D01*
X102250000Y-145799999D01*
X102116667Y-145766665D01*
X102050000Y-145699999D01*
X102016667Y-145633332D01*
X102016667Y-144899999D02*
X102016667Y-144766666D01*
X102050000Y-144699999D01*
X102116667Y-144633332D01*
X102250000Y-144599999D01*
X102483333Y-144599999D01*
X102616667Y-144633332D01*
X102683333Y-144699999D01*
X102716667Y-144766666D01*
X102716667Y-144899999D01*
X102683333Y-144966666D01*
X102616667Y-145033332D01*
X102483333Y-145066666D01*
X102250000Y-145066666D01*
X102116667Y-145033332D01*
X102050000Y-144966666D01*
X102016667Y-144899999D01*
X102716667Y-144299999D02*
X102016667Y-144299999D01*
X102016667Y-144033333D01*
X102050000Y-143966666D01*
X102083333Y-143933333D01*
X102150000Y-143899999D01*
X102250000Y-143899999D01*
X102316667Y-143933333D01*
X102350000Y-143966666D01*
X102383333Y-144033333D01*
X102383333Y-144299999D01*
X102016667Y-142866666D02*
X102516667Y-142866666D01*
X102616667Y-142900000D01*
X102683333Y-142966666D01*
X102716667Y-143066666D01*
X102716667Y-143133333D01*
X102016667Y-142533333D02*
X102583333Y-142533333D01*
X102650000Y-142500000D01*
X102683333Y-142466667D01*
X102716667Y-142400000D01*
X102716667Y-142266667D01*
X102683333Y-142200000D01*
X102650000Y-142166667D01*
X102583333Y-142133333D01*
X102016667Y-142133333D01*
X102716667Y-141800000D02*
X102016667Y-141800000D01*
X102516667Y-141566667D01*
X102016667Y-141333334D01*
X102716667Y-141333334D01*
X102716667Y-141000000D02*
X102016667Y-141000000D01*
X102016667Y-140733334D01*
X102050000Y-140666667D01*
X102083333Y-140633334D01*
X102150000Y-140600000D01*
X102250000Y-140600000D01*
X102316667Y-140633334D01*
X102350000Y-140666667D01*
X102383333Y-140733334D01*
X102383333Y-141000000D01*
X102350000Y-140300000D02*
X102350000Y-140066667D01*
X102716667Y-139966667D02*
X102716667Y-140300000D01*
X102016667Y-140300000D01*
X102016667Y-139966667D01*
X102716667Y-139266667D02*
X102383333Y-139500001D01*
X102716667Y-139666667D02*
X102016667Y-139666667D01*
X102016667Y-139400001D01*
X102050000Y-139333334D01*
X102083333Y-139300001D01*
X102150000Y-139266667D01*
X102250000Y-139266667D01*
X102316667Y-139300001D01*
X102350000Y-139333334D01*
X102383333Y-139400001D01*
X102383333Y-139666667D01*
D15*
X91250001Y-113378571D02*
X90750001Y-112664286D01*
X90392858Y-113378571D02*
X90392858Y-111878571D01*
X90964286Y-111878571D01*
X91107144Y-111950000D01*
X91178572Y-112021429D01*
X91250001Y-112164286D01*
X91250001Y-112378571D01*
X91178572Y-112521429D01*
X91107144Y-112592857D01*
X90964286Y-112664286D01*
X90392858Y-112664286D01*
X91750001Y-111878571D02*
X92750001Y-113378571D01*
X92750001Y-111878571D02*
X91750001Y-113378571D01*
X98857143Y-111878571D02*
X99714286Y-111878571D01*
X99285715Y-113378571D02*
X99285715Y-111878571D01*
X100071429Y-111878571D02*
X101071429Y-113378571D01*
X101071429Y-111878571D02*
X100071429Y-113378571D01*
D13*
X99735714Y-107669643D02*
X99950000Y-107741071D01*
X100307143Y-107741071D01*
X100450000Y-107669643D01*
X100521429Y-107598214D01*
X100592857Y-107455357D01*
X100592857Y-107312500D01*
X100521429Y-107169643D01*
X100450000Y-107098214D01*
X100307143Y-107026786D01*
X100021429Y-106955357D01*
X99878571Y-106883929D01*
X99807143Y-106812500D01*
X99735714Y-106669643D01*
X99735714Y-106526786D01*
X99807143Y-106383929D01*
X99878571Y-106312500D01*
X100021429Y-106241071D01*
X100378571Y-106241071D01*
X100592857Y-106312500D01*
X101235714Y-106955357D02*
X101735714Y-106955357D01*
X101950000Y-107741071D02*
X101235714Y-107741071D01*
X101235714Y-106241071D01*
X101950000Y-106241071D01*
X103450000Y-107741071D02*
X102950000Y-107026786D01*
X102592857Y-107741071D02*
X102592857Y-106241071D01*
X103164285Y-106241071D01*
X103307143Y-106312500D01*
X103378571Y-106383929D01*
X103450000Y-106526786D01*
X103450000Y-106741071D01*
X103378571Y-106883929D01*
X103307143Y-106955357D01*
X103164285Y-107026786D01*
X102592857Y-107026786D01*
X104092857Y-107741071D02*
X104092857Y-106241071D01*
X104735714Y-107312500D02*
X105450000Y-107312500D01*
X104592857Y-107741071D02*
X105092857Y-106241071D01*
X105592857Y-107741071D01*
X106807143Y-107741071D02*
X106092857Y-107741071D01*
X106092857Y-106241071D01*
X99842857Y-110016071D02*
X99842857Y-108516071D01*
X100200000Y-108516071D01*
X100414285Y-108587500D01*
X100557143Y-108730357D01*
X100628571Y-108873214D01*
X100700000Y-109158929D01*
X100700000Y-109373214D01*
X100628571Y-109658929D01*
X100557143Y-109801786D01*
X100414285Y-109944643D01*
X100200000Y-110016071D01*
X99842857Y-110016071D01*
X101342857Y-109230357D02*
X101842857Y-109230357D01*
X102057143Y-110016071D02*
X101342857Y-110016071D01*
X101342857Y-108516071D01*
X102057143Y-108516071D01*
X103200000Y-109230357D02*
X103414286Y-109301786D01*
X103485714Y-109373214D01*
X103557143Y-109516071D01*
X103557143Y-109730357D01*
X103485714Y-109873214D01*
X103414286Y-109944643D01*
X103271428Y-110016071D01*
X102700000Y-110016071D01*
X102700000Y-108516071D01*
X103200000Y-108516071D01*
X103342857Y-108587500D01*
X103414286Y-108658929D01*
X103485714Y-108801786D01*
X103485714Y-108944643D01*
X103414286Y-109087500D01*
X103342857Y-109158929D01*
X103200000Y-109230357D01*
X102700000Y-109230357D01*
X104200000Y-108516071D02*
X104200000Y-109730357D01*
X104271428Y-109873214D01*
X104342857Y-109944643D01*
X104485714Y-110016071D01*
X104771428Y-110016071D01*
X104914286Y-109944643D01*
X104985714Y-109873214D01*
X105057143Y-109730357D01*
X105057143Y-108516071D01*
X106557143Y-108587500D02*
X106414286Y-108516071D01*
X106200000Y-108516071D01*
X105985715Y-108587500D01*
X105842857Y-108730357D01*
X105771429Y-108873214D01*
X105700000Y-109158929D01*
X105700000Y-109373214D01*
X105771429Y-109658929D01*
X105842857Y-109801786D01*
X105985715Y-109944643D01*
X106200000Y-110016071D01*
X106342857Y-110016071D01*
X106557143Y-109944643D01*
X106628572Y-109873214D01*
X106628572Y-109373214D01*
X106342857Y-109373214D01*
D15*
X42614286Y-107050000D02*
X43328572Y-107050000D01*
X42471429Y-107478571D02*
X42971429Y-105978571D01*
X43471429Y-107478571D01*
X43757143Y-105978571D02*
X44257143Y-107478571D01*
X44757143Y-105978571D01*
X46114286Y-107478571D02*
X45614286Y-106764286D01*
X45257143Y-107478571D02*
X45257143Y-105978571D01*
X45828571Y-105978571D01*
X45971429Y-106050000D01*
X46042857Y-106121429D01*
X46114286Y-106264286D01*
X46114286Y-106478571D01*
X46042857Y-106621429D01*
X45971429Y-106692857D01*
X45828571Y-106764286D01*
X45257143Y-106764286D01*
X41471428Y-109092857D02*
X41685714Y-109164286D01*
X41757142Y-109235714D01*
X41828571Y-109378571D01*
X41828571Y-109592857D01*
X41757142Y-109735714D01*
X41685714Y-109807143D01*
X41542856Y-109878571D01*
X40971428Y-109878571D01*
X40971428Y-108378571D01*
X41471428Y-108378571D01*
X41614285Y-108450000D01*
X41685714Y-108521429D01*
X41757142Y-108664286D01*
X41757142Y-108807143D01*
X41685714Y-108950000D01*
X41614285Y-109021429D01*
X41471428Y-109092857D01*
X40971428Y-109092857D01*
X42757142Y-108378571D02*
X43042856Y-108378571D01*
X43185714Y-108450000D01*
X43328571Y-108592857D01*
X43399999Y-108878571D01*
X43399999Y-109378571D01*
X43328571Y-109664286D01*
X43185714Y-109807143D01*
X43042856Y-109878571D01*
X42757142Y-109878571D01*
X42614285Y-109807143D01*
X42471428Y-109664286D01*
X42399999Y-109378571D01*
X42399999Y-108878571D01*
X42471428Y-108592857D01*
X42614285Y-108450000D01*
X42757142Y-108378571D01*
X44328571Y-108378571D02*
X44614285Y-108378571D01*
X44757143Y-108450000D01*
X44900000Y-108592857D01*
X44971428Y-108878571D01*
X44971428Y-109378571D01*
X44900000Y-109664286D01*
X44757143Y-109807143D01*
X44614285Y-109878571D01*
X44328571Y-109878571D01*
X44185714Y-109807143D01*
X44042857Y-109664286D01*
X43971428Y-109378571D01*
X43971428Y-108878571D01*
X44042857Y-108592857D01*
X44185714Y-108450000D01*
X44328571Y-108378571D01*
X45400000Y-108378571D02*
X46257143Y-108378571D01*
X45828572Y-109878571D02*
X45828572Y-108378571D01*
X79607143Y-111642856D02*
X79607143Y-110499999D01*
X80178571Y-111071428D02*
X79035714Y-111071428D01*
X80178571Y-108999999D02*
X80178571Y-109857142D01*
X80178571Y-109428570D02*
X78678571Y-109428570D01*
X78892857Y-109571427D01*
X79035714Y-109714285D01*
X79107143Y-109857142D01*
X78821429Y-108428571D02*
X78750000Y-108357142D01*
X78678571Y-108214285D01*
X78678571Y-107857142D01*
X78750000Y-107714285D01*
X78821429Y-107642856D01*
X78964286Y-107571428D01*
X79107143Y-107571428D01*
X79321429Y-107642856D01*
X80178571Y-108499999D01*
X80178571Y-107571428D01*
X78678571Y-107142857D02*
X80178571Y-106642857D01*
X78678571Y-106142857D01*
X64050000Y-119278571D02*
X64050000Y-120350000D01*
X63978572Y-120564286D01*
X63835715Y-120707143D01*
X63621429Y-120778571D01*
X63478572Y-120778571D01*
X64550000Y-119278571D02*
X65407143Y-119278571D01*
X64978572Y-120778571D02*
X64978572Y-119278571D01*
X65835714Y-120350000D02*
X66550000Y-120350000D01*
X65692857Y-120778571D02*
X66192857Y-119278571D01*
X66692857Y-120778571D01*
X67978571Y-119350000D02*
X67835714Y-119278571D01*
X67621428Y-119278571D01*
X67407143Y-119350000D01*
X67264285Y-119492857D01*
X67192857Y-119635714D01*
X67121428Y-119921429D01*
X67121428Y-120135714D01*
X67192857Y-120421429D01*
X67264285Y-120564286D01*
X67407143Y-120707143D01*
X67621428Y-120778571D01*
X67764285Y-120778571D01*
X67978571Y-120707143D01*
X68050000Y-120635714D01*
X68050000Y-120135714D01*
X67764285Y-120135714D01*
D16*
X63580953Y-112066667D02*
X64057144Y-112066667D01*
X63485715Y-112352381D02*
X63819048Y-111352381D01*
X64152382Y-112352381D01*
X64485715Y-111971429D02*
X65247620Y-111971429D01*
X65628572Y-111352381D02*
X65866667Y-112352381D01*
X66057144Y-111638095D01*
X66247620Y-112352381D01*
X66485715Y-111352381D01*
X66866667Y-112352381D02*
X66866667Y-111352381D01*
X67914286Y-112352381D02*
X67580952Y-111876190D01*
X67342857Y-112352381D02*
X67342857Y-111352381D01*
X67723810Y-111352381D01*
X67819048Y-111400000D01*
X67866667Y-111447619D01*
X67914286Y-111542857D01*
X67914286Y-111685714D01*
X67866667Y-111780952D01*
X67819048Y-111828571D01*
X67723810Y-111876190D01*
X67342857Y-111876190D01*
X68342857Y-111828571D02*
X68676191Y-111828571D01*
X68819048Y-112352381D02*
X68342857Y-112352381D01*
X68342857Y-111352381D01*
X68819048Y-111352381D01*
D13*
X61216548Y-159519048D02*
X59516548Y-159519048D01*
X61378452Y-159114286D02*
X61378452Y-157819048D01*
X61216548Y-156442858D02*
X60407024Y-157009524D01*
X61216548Y-157414286D02*
X59516548Y-157414286D01*
X59516548Y-156766667D01*
X59597500Y-156604762D01*
X59678452Y-156523810D01*
X59840357Y-156442858D01*
X60083214Y-156442858D01*
X60245119Y-156523810D01*
X60326071Y-156604762D01*
X60407024Y-156766667D01*
X60407024Y-157414286D01*
X59516548Y-155876191D02*
X61216548Y-154742858D01*
X59516548Y-154742858D02*
X61216548Y-155876191D01*
X63771548Y-159114286D02*
X62071548Y-159114286D01*
X63933452Y-158709524D02*
X63933452Y-157414286D01*
X62071548Y-157252381D02*
X62071548Y-156280953D01*
X63771548Y-156766667D02*
X62071548Y-156766667D01*
X62071548Y-155876191D02*
X63771548Y-154742858D01*
X62071548Y-154742858D02*
X63771548Y-155876191D01*
X66326548Y-158223810D02*
X64626548Y-158223810D01*
X66164643Y-156442858D02*
X66245595Y-156523810D01*
X66326548Y-156766667D01*
X66326548Y-156928572D01*
X66245595Y-157171429D01*
X66083690Y-157333334D01*
X65921786Y-157414286D01*
X65597976Y-157495238D01*
X65355119Y-157495238D01*
X65031310Y-157414286D01*
X64869405Y-157333334D01*
X64707500Y-157171429D01*
X64626548Y-156928572D01*
X64626548Y-156766667D01*
X64707500Y-156523810D01*
X64788452Y-156442858D01*
X66245595Y-155795238D02*
X66326548Y-155552381D01*
X66326548Y-155147619D01*
X66245595Y-154985715D01*
X66164643Y-154904762D01*
X66002738Y-154823810D01*
X65840833Y-154823810D01*
X65678929Y-154904762D01*
X65597976Y-154985715D01*
X65517024Y-155147619D01*
X65436071Y-155471429D01*
X65355119Y-155633334D01*
X65274167Y-155714286D01*
X65112262Y-155795238D01*
X64950357Y-155795238D01*
X64788452Y-155714286D01*
X64707500Y-155633334D01*
X64626548Y-155471429D01*
X64626548Y-155066667D01*
X64707500Y-154823810D01*
X68719643Y-159438096D02*
X68800595Y-159519048D01*
X68881548Y-159761905D01*
X68881548Y-159923810D01*
X68800595Y-160166667D01*
X68638690Y-160328572D01*
X68476786Y-160409524D01*
X68152976Y-160490476D01*
X67910119Y-160490476D01*
X67586310Y-160409524D01*
X67424405Y-160328572D01*
X67262500Y-160166667D01*
X67181548Y-159923810D01*
X67181548Y-159761905D01*
X67262500Y-159519048D01*
X67343452Y-159438096D01*
X69043452Y-159114286D02*
X69043452Y-157819048D01*
X68881548Y-156442858D02*
X68072024Y-157009524D01*
X68881548Y-157414286D02*
X67181548Y-157414286D01*
X67181548Y-156766667D01*
X67262500Y-156604762D01*
X67343452Y-156523810D01*
X67505357Y-156442858D01*
X67748214Y-156442858D01*
X67910119Y-156523810D01*
X67991071Y-156604762D01*
X68072024Y-156766667D01*
X68072024Y-157414286D01*
X67181548Y-155876191D02*
X68881548Y-154742858D01*
X67181548Y-154742858D02*
X68881548Y-155876191D01*
X71274643Y-159033334D02*
X71355595Y-159114286D01*
X71436548Y-159357143D01*
X71436548Y-159519048D01*
X71355595Y-159761905D01*
X71193690Y-159923810D01*
X71031786Y-160004762D01*
X70707976Y-160085714D01*
X70465119Y-160085714D01*
X70141310Y-160004762D01*
X69979405Y-159923810D01*
X69817500Y-159761905D01*
X69736548Y-159519048D01*
X69736548Y-159357143D01*
X69817500Y-159114286D01*
X69898452Y-159033334D01*
X71598452Y-158709524D02*
X71598452Y-157414286D01*
X69736548Y-157252381D02*
X69736548Y-156280953D01*
X71436548Y-156766667D02*
X69736548Y-156766667D01*
X69736548Y-155876191D02*
X71436548Y-154742858D01*
X69736548Y-154742858D02*
X71436548Y-155876191D01*
X73991548Y-160247619D02*
X72291548Y-160247619D01*
X73505833Y-159680952D01*
X72291548Y-159114286D01*
X73991548Y-159114286D01*
X72291548Y-157980953D02*
X72291548Y-157657143D01*
X72372500Y-157495238D01*
X72534405Y-157333334D01*
X72858214Y-157252381D01*
X73424881Y-157252381D01*
X73748690Y-157333334D01*
X73910595Y-157495238D01*
X73991548Y-157657143D01*
X73991548Y-157980953D01*
X73910595Y-158142857D01*
X73748690Y-158304762D01*
X73424881Y-158385714D01*
X72858214Y-158385714D01*
X72534405Y-158304762D01*
X72372500Y-158142857D01*
X72291548Y-157980953D01*
X73910595Y-156604762D02*
X73991548Y-156361905D01*
X73991548Y-155957143D01*
X73910595Y-155795239D01*
X73829643Y-155714286D01*
X73667738Y-155633334D01*
X73505833Y-155633334D01*
X73343929Y-155714286D01*
X73262976Y-155795239D01*
X73182024Y-155957143D01*
X73101071Y-156280953D01*
X73020119Y-156442858D01*
X72939167Y-156523810D01*
X72777262Y-156604762D01*
X72615357Y-156604762D01*
X72453452Y-156523810D01*
X72372500Y-156442858D01*
X72291548Y-156280953D01*
X72291548Y-155876191D01*
X72372500Y-155633334D01*
X73991548Y-154904762D02*
X72291548Y-154904762D01*
X76546548Y-160247619D02*
X74846548Y-160247619D01*
X76060833Y-159680952D01*
X74846548Y-159114286D01*
X76546548Y-159114286D01*
X76546548Y-158304762D02*
X74846548Y-158304762D01*
X76465595Y-157576190D02*
X76546548Y-157333333D01*
X76546548Y-156928571D01*
X76465595Y-156766667D01*
X76384643Y-156685714D01*
X76222738Y-156604762D01*
X76060833Y-156604762D01*
X75898929Y-156685714D01*
X75817976Y-156766667D01*
X75737024Y-156928571D01*
X75656071Y-157252381D01*
X75575119Y-157414286D01*
X75494167Y-157495238D01*
X75332262Y-157576190D01*
X75170357Y-157576190D01*
X75008452Y-157495238D01*
X74927500Y-157414286D01*
X74846548Y-157252381D01*
X74846548Y-156847619D01*
X74927500Y-156604762D01*
X74846548Y-155552381D02*
X74846548Y-155228571D01*
X74927500Y-155066666D01*
X75089405Y-154904762D01*
X75413214Y-154823809D01*
X75979881Y-154823809D01*
X76303690Y-154904762D01*
X76465595Y-155066666D01*
X76546548Y-155228571D01*
X76546548Y-155552381D01*
X76465595Y-155714285D01*
X76303690Y-155876190D01*
X75979881Y-155957142D01*
X75413214Y-155957142D01*
X75089405Y-155876190D01*
X74927500Y-155714285D01*
X74846548Y-155552381D01*
X79020595Y-160571428D02*
X79101548Y-160328571D01*
X79101548Y-159923809D01*
X79020595Y-159761905D01*
X78939643Y-159680952D01*
X78777738Y-159600000D01*
X78615833Y-159600000D01*
X78453929Y-159680952D01*
X78372976Y-159761905D01*
X78292024Y-159923809D01*
X78211071Y-160247619D01*
X78130119Y-160409524D01*
X78049167Y-160490476D01*
X77887262Y-160571428D01*
X77725357Y-160571428D01*
X77563452Y-160490476D01*
X77482500Y-160409524D01*
X77401548Y-160247619D01*
X77401548Y-159842857D01*
X77482500Y-159600000D01*
X78939643Y-157900000D02*
X79020595Y-157980952D01*
X79101548Y-158223809D01*
X79101548Y-158385714D01*
X79020595Y-158628571D01*
X78858690Y-158790476D01*
X78696786Y-158871428D01*
X78372976Y-158952380D01*
X78130119Y-158952380D01*
X77806310Y-158871428D01*
X77644405Y-158790476D01*
X77482500Y-158628571D01*
X77401548Y-158385714D01*
X77401548Y-158223809D01*
X77482500Y-157980952D01*
X77563452Y-157900000D01*
X79101548Y-156361904D02*
X79101548Y-157171428D01*
X77401548Y-157171428D01*
X79101548Y-155795238D02*
X77401548Y-155795238D01*
X79101548Y-154823810D02*
X78130119Y-155552381D01*
X77401548Y-154823810D02*
X78372976Y-155795238D01*
X81494643Y-158142858D02*
X81575595Y-158223810D01*
X81656548Y-158466667D01*
X81656548Y-158628572D01*
X81575595Y-158871429D01*
X81413690Y-159033334D01*
X81251786Y-159114286D01*
X80927976Y-159195238D01*
X80685119Y-159195238D01*
X80361310Y-159114286D01*
X80199405Y-159033334D01*
X80037500Y-158871429D01*
X79956548Y-158628572D01*
X79956548Y-158466667D01*
X80037500Y-158223810D01*
X80118452Y-158142858D01*
X81494643Y-156442858D02*
X81575595Y-156523810D01*
X81656548Y-156766667D01*
X81656548Y-156928572D01*
X81575595Y-157171429D01*
X81413690Y-157333334D01*
X81251786Y-157414286D01*
X80927976Y-157495238D01*
X80685119Y-157495238D01*
X80361310Y-157414286D01*
X80199405Y-157333334D01*
X80037500Y-157171429D01*
X79956548Y-156928572D01*
X79956548Y-156766667D01*
X80037500Y-156523810D01*
X80118452Y-156442858D01*
X81575595Y-155795238D02*
X81656548Y-155552381D01*
X81656548Y-155147619D01*
X81575595Y-154985715D01*
X81494643Y-154904762D01*
X81332738Y-154823810D01*
X81170833Y-154823810D01*
X81008929Y-154904762D01*
X80927976Y-154985715D01*
X80847024Y-155147619D01*
X80766071Y-155471429D01*
X80685119Y-155633334D01*
X80604167Y-155714286D01*
X80442262Y-155795238D01*
X80280357Y-155795238D01*
X80118452Y-155714286D01*
X80037500Y-155633334D01*
X79956548Y-155471429D01*
X79956548Y-155066667D01*
X80037500Y-154823810D01*
X82511548Y-158952381D02*
X82511548Y-157980953D01*
X84211548Y-158466667D02*
X82511548Y-158466667D01*
X82511548Y-157576191D02*
X84211548Y-156442858D01*
X82511548Y-156442858D02*
X84211548Y-157576191D01*
X84211548Y-155795238D02*
X82511548Y-155795238D01*
X82511548Y-155390476D01*
X82592500Y-155147619D01*
X82754405Y-154985714D01*
X82916310Y-154904762D01*
X83240119Y-154823810D01*
X83482976Y-154823810D01*
X83806786Y-154904762D01*
X83968690Y-154985714D01*
X84130595Y-155147619D01*
X84211548Y-155390476D01*
X84211548Y-155795238D01*
X86766548Y-158142858D02*
X85957024Y-158709524D01*
X86766548Y-159114286D02*
X85066548Y-159114286D01*
X85066548Y-158466667D01*
X85147500Y-158304762D01*
X85228452Y-158223810D01*
X85390357Y-158142858D01*
X85633214Y-158142858D01*
X85795119Y-158223810D01*
X85876071Y-158304762D01*
X85957024Y-158466667D01*
X85957024Y-159114286D01*
X85066548Y-157576191D02*
X86766548Y-156442858D01*
X85066548Y-156442858D02*
X86766548Y-157576191D01*
X86766548Y-155795238D02*
X85066548Y-155795238D01*
X85066548Y-155390476D01*
X85147500Y-155147619D01*
X85309405Y-154985714D01*
X85471310Y-154904762D01*
X85795119Y-154823810D01*
X86037976Y-154823810D01*
X86361786Y-154904762D01*
X86523690Y-154985714D01*
X86685595Y-155147619D01*
X86766548Y-155390476D01*
X86766548Y-155795238D01*
X87702500Y-158385714D02*
X87621548Y-158547619D01*
X87621548Y-158790476D01*
X87702500Y-159033333D01*
X87864405Y-159195238D01*
X88026310Y-159276190D01*
X88350119Y-159357142D01*
X88592976Y-159357142D01*
X88916786Y-159276190D01*
X89078690Y-159195238D01*
X89240595Y-159033333D01*
X89321548Y-158790476D01*
X89321548Y-158628571D01*
X89240595Y-158385714D01*
X89159643Y-158304762D01*
X88592976Y-158304762D01*
X88592976Y-158628571D01*
X89321548Y-157576190D02*
X87621548Y-157576190D01*
X89321548Y-156604762D01*
X87621548Y-156604762D01*
X89321548Y-155795238D02*
X87621548Y-155795238D01*
X87621548Y-155390476D01*
X87702500Y-155147619D01*
X87864405Y-154985714D01*
X88026310Y-154904762D01*
X88350119Y-154823810D01*
X88592976Y-154823810D01*
X88916786Y-154904762D01*
X89078690Y-154985714D01*
X89240595Y-155147619D01*
X89321548Y-155390476D01*
X89321548Y-155795238D01*
D17*
X27935000Y-151509000D02*
X27935000Y-134364000D01*
X38730000Y-133729000D02*
X38730000Y-152144000D01*
X38730000Y-133094000D02*
X38730000Y-133729000D01*
X35555000Y-133094000D02*
X35555000Y-152779000D01*
X35555000Y-127379000D02*
X35555000Y-133094000D01*
X34285000Y-158494000D02*
X34285000Y-127379000D01*
X34285000Y-134364000D02*
X27935000Y-134364000D01*
X35555000Y-127379000D02*
X34285000Y-127379000D01*
X38730000Y-133094000D02*
X35555000Y-133094000D01*
X40000000Y-135634000D02*
X40000000Y-133729000D01*
X40000000Y-133729000D02*
X38730000Y-133729000D01*
X34285000Y-151509000D02*
X27935000Y-151509000D01*
X35555000Y-152779000D02*
X35555000Y-158494000D01*
X35555000Y-158494000D02*
X34285000Y-158494000D01*
X38730000Y-152144000D02*
X38730000Y-152779000D01*
X38730000Y-152779000D02*
X35555000Y-152779000D01*
X40000000Y-150239000D02*
X40000000Y-152144000D01*
X40000000Y-152144000D02*
X38730000Y-152144000D01*
X50500000Y-114675000D02*
X49500000Y-114675000D01*
X49500000Y-113325000D02*
X50500000Y-113325000D01*
X105500000Y-125175000D02*
X104500000Y-125175000D01*
X104500000Y-123825000D02*
X105500000Y-123825000D01*
X105500000Y-122675000D02*
X104500000Y-122675000D01*
X104500000Y-121325000D02*
X105500000Y-121325000D01*
X59500000Y-136325000D02*
X60500000Y-136325000D01*
X60500000Y-137675000D02*
X59500000Y-137675000D01*
X59500000Y-146325000D02*
X60500000Y-146325000D01*
X60500000Y-147675000D02*
X59500000Y-147675000D01*
X44500000Y-130675000D02*
X43500000Y-130675000D01*
X43500000Y-129325000D02*
X44500000Y-129325000D01*
X48900000Y-115850000D02*
X52600000Y-115850000D01*
X48900000Y-117650000D02*
X52600000Y-117650000D01*
X50000000Y-118575000D02*
X51000000Y-118575000D01*
X51000000Y-119925000D02*
X50000000Y-119925000D01*
X94500000Y-143325000D02*
X95500000Y-143325000D01*
X95500000Y-144675000D02*
X94500000Y-144675000D01*
X65500000Y-147675000D02*
X64500000Y-147675000D01*
X64500000Y-146325000D02*
X65500000Y-146325000D01*
X52500000Y-129325000D02*
X53500000Y-129325000D01*
X53500000Y-130675000D02*
X52500000Y-130675000D01*
X80500000Y-142175000D02*
X79500000Y-142175000D01*
X79500000Y-140825000D02*
X80500000Y-140825000D01*
X43000000Y-121025000D02*
X45000000Y-121025000D01*
X45000000Y-123975000D02*
X43000000Y-123975000D01*
X106475000Y-127500000D02*
X106475000Y-129500000D01*
X103525000Y-129500000D02*
X103525000Y-127500000D01*
X45000000Y-127975000D02*
X43000000Y-127975000D01*
X43000000Y-125025000D02*
X45000000Y-125025000D01*
X79500000Y-145825000D02*
X80500000Y-145825000D01*
X80500000Y-147175000D02*
X79500000Y-147175000D01*
X79500000Y-143325000D02*
X80500000Y-143325000D01*
X80500000Y-144675000D02*
X79500000Y-144675000D01*
X82500000Y-125325000D02*
X83500000Y-125325000D01*
X83500000Y-126675000D02*
X82500000Y-126675000D01*
X82500000Y-122825000D02*
X83500000Y-122825000D01*
X83500000Y-124175000D02*
X82500000Y-124175000D01*
X94000000Y-118175000D02*
X93000000Y-118175000D01*
X93000000Y-116825000D02*
X94000000Y-116825000D01*
X97500000Y-116825000D02*
X98500000Y-116825000D01*
X98500000Y-118175000D02*
X97500000Y-118175000D01*
X94500000Y-139825000D02*
X95500000Y-139825000D01*
X95500000Y-141175000D02*
X94500000Y-141175000D01*
X84500000Y-136675000D02*
X83500000Y-136675000D01*
X83500000Y-135325000D02*
X84500000Y-135325000D01*
X84500000Y-133675000D02*
X83500000Y-133675000D01*
X83500000Y-132325000D02*
X84500000Y-132325000D01*
X75000000Y-116825000D02*
X76000000Y-116825000D01*
X76000000Y-118175000D02*
X75000000Y-118175000D01*
X96339220Y-151169040D02*
X95729620Y-151169040D01*
X95729620Y-151169040D02*
X95719460Y-151600840D01*
X94000000Y-115250000D02*
X94000000Y-113750000D01*
X94000000Y-113750000D02*
X93750000Y-113750000D01*
X93750000Y-113750000D02*
X93750000Y-115250000D01*
X93750000Y-115250000D02*
X94000000Y-115250000D01*
X92900000Y-113625000D02*
X94100000Y-113625000D01*
X94100000Y-115375000D02*
X92900000Y-115375000D01*
X97500000Y-113750000D02*
X97500000Y-115250000D01*
X97500000Y-115250000D02*
X97750000Y-115250000D01*
X97750000Y-115250000D02*
X97750000Y-113750000D01*
X97750000Y-113750000D02*
X97500000Y-113750000D01*
X98600000Y-115375000D02*
X97400000Y-115375000D01*
X97400000Y-113625000D02*
X98600000Y-113625000D01*
X79500000Y-135250000D02*
X79500000Y-136750000D01*
X79500000Y-136750000D02*
X79750000Y-136750000D01*
X79750000Y-136750000D02*
X79750000Y-135250000D01*
X79750000Y-135250000D02*
X79500000Y-135250000D01*
X80600000Y-136875000D02*
X79400000Y-136875000D01*
X79400000Y-135125000D02*
X80600000Y-135125000D01*
X79500000Y-132250000D02*
X79500000Y-133750000D01*
X79500000Y-133750000D02*
X79750000Y-133750000D01*
X79750000Y-133750000D02*
X79750000Y-132250000D01*
X79750000Y-132250000D02*
X79500000Y-132250000D01*
X80600000Y-133875000D02*
X79400000Y-133875000D01*
X79400000Y-132125000D02*
X80600000Y-132125000D01*
X76000000Y-109450000D02*
X76000000Y-107950000D01*
X76000000Y-107950000D02*
X75750000Y-107950000D01*
X75750000Y-107950000D02*
X75750000Y-109450000D01*
X75750000Y-109450000D02*
X76000000Y-109450000D01*
X74900000Y-107825000D02*
X76100000Y-107825000D01*
X76100000Y-109575000D02*
X74900000Y-109575000D01*
X50000000Y-127750000D02*
X50000000Y-126250000D01*
X50000000Y-126250000D02*
X49750000Y-126250000D01*
X49750000Y-126250000D02*
X49750000Y-127750000D01*
X49750000Y-127750000D02*
X50000000Y-127750000D01*
X48900000Y-126125000D02*
X50100000Y-126125000D01*
X50100000Y-127875000D02*
X48900000Y-127875000D01*
X82500000Y-127750000D02*
X82500000Y-129250000D01*
X82500000Y-129250000D02*
X82750000Y-129250000D01*
X82750000Y-129250000D02*
X82750000Y-127750000D01*
X82750000Y-127750000D02*
X82500000Y-127750000D01*
X83600000Y-129375000D02*
X82400000Y-129375000D01*
X82400000Y-127625000D02*
X83600000Y-127625000D01*
X59500000Y-128050000D02*
X61050000Y-128050000D01*
X61050000Y-128050000D02*
X61050000Y-124950000D01*
X61050000Y-124950000D02*
X59500000Y-124950000D01*
X58230000Y-127770000D02*
X53150000Y-127770000D01*
X53150000Y-127770000D02*
X53150000Y-125230000D01*
X53150000Y-125230000D02*
X58230000Y-125230000D01*
X58230000Y-125230000D02*
X58230000Y-127770000D01*
X39282540Y-110649100D02*
X39282540Y-119349100D01*
X45687540Y-110649100D02*
X45687540Y-119349100D01*
X45687540Y-119349100D02*
X39282540Y-119349100D01*
X40512540Y-119349100D02*
X40512540Y-110649100D01*
X39282540Y-110649100D02*
X45687540Y-110649100D01*
X108717460Y-119350900D02*
X108717460Y-110650900D01*
X102312460Y-119350900D02*
X102312460Y-110650900D01*
X102312460Y-110650900D02*
X108717460Y-110650900D01*
X107487460Y-110650900D02*
X107487460Y-119350900D01*
X108717460Y-119350900D02*
X102312460Y-119350900D01*
X87330000Y-150930000D02*
X59390000Y-150930000D01*
X59390000Y-150930000D02*
X59390000Y-153470000D01*
X59390000Y-153470000D02*
X87330000Y-153470000D01*
X90150000Y-150650000D02*
X88600000Y-150650000D01*
X87330000Y-150930000D02*
X87330000Y-153470000D01*
X88600000Y-153750000D02*
X90150000Y-153750000D01*
X90150000Y-153750000D02*
X90150000Y-150650000D01*
X59500000Y-143825000D02*
X60500000Y-143825000D01*
X60500000Y-145175000D02*
X59500000Y-145175000D01*
X59500000Y-131325000D02*
X60500000Y-131325000D01*
X60500000Y-132675000D02*
X59500000Y-132675000D01*
X60500000Y-135175000D02*
X59500000Y-135175000D01*
X59500000Y-133825000D02*
X60500000Y-133825000D01*
X88000000Y-129175000D02*
X87000000Y-129175000D01*
X87000000Y-127825000D02*
X88000000Y-127825000D01*
X88000000Y-126675000D02*
X87000000Y-126675000D01*
X87000000Y-125325000D02*
X88000000Y-125325000D01*
X75675000Y-132825000D02*
X74600000Y-132825000D01*
X75675000Y-143175000D02*
X74600000Y-143175000D01*
X65325000Y-143175000D02*
X66400000Y-143175000D01*
X65325000Y-132825000D02*
X66400000Y-132825000D01*
X75675000Y-132825000D02*
X75675000Y-133900000D01*
X65325000Y-132825000D02*
X65325000Y-133900000D01*
X65325000Y-143175000D02*
X65325000Y-142100000D01*
X75675000Y-143175000D02*
X75675000Y-142100000D01*
X74600000Y-132825000D02*
X74600000Y-131800000D01*
X91175000Y-127875000D02*
X91825000Y-127875000D01*
X91175000Y-122125000D02*
X91825000Y-122125000D01*
X101825000Y-122125000D02*
X101175000Y-122125000D01*
X101825000Y-127875000D02*
X101175000Y-127875000D01*
X91175000Y-127875000D02*
X91175000Y-122125000D01*
X101825000Y-127875000D02*
X101825000Y-122125000D01*
X91825000Y-127875000D02*
X91825000Y-129475000D01*
X48625000Y-136175000D02*
X48625000Y-136825000D01*
X54375000Y-136175000D02*
X54375000Y-136825000D01*
X54375000Y-146825000D02*
X54375000Y-146175000D01*
X48625000Y-146825000D02*
X48625000Y-146175000D01*
X48625000Y-136175000D02*
X54375000Y-136175000D01*
X48625000Y-146825000D02*
X54375000Y-146825000D01*
X48625000Y-136825000D02*
X47025000Y-136825000D01*
X93325000Y-141125000D02*
X92675000Y-141125000D01*
X93325000Y-146875000D02*
X92675000Y-146875000D01*
X82675000Y-146875000D02*
X83325000Y-146875000D01*
X82675000Y-141125000D02*
X83325000Y-141125000D01*
X93325000Y-141125000D02*
X93325000Y-146875000D01*
X82675000Y-141125000D02*
X82675000Y-146875000D01*
X92675000Y-141125000D02*
X92675000Y-139525000D01*
X62000000Y-140700000D02*
X62000000Y-139400000D01*
X62000000Y-139400000D02*
X61900000Y-139300000D01*
X61900000Y-139300000D02*
X60400000Y-139300000D01*
X61600000Y-142300000D02*
X58400000Y-142300000D01*
X58400000Y-142300000D02*
X58400000Y-139700000D01*
X58400000Y-139700000D02*
X61600000Y-139700000D01*
X61600000Y-139700000D02*
X61600000Y-142300000D01*
X99449780Y-145239890D02*
X99449780Y-142739890D01*
X99449780Y-142739890D02*
X100549780Y-142739890D01*
X100549780Y-142739890D02*
X100549780Y-145239890D01*
X100549780Y-145239890D02*
X99449780Y-145239890D01*
X100799780Y-145489890D02*
X100799780Y-142489890D01*
X99199780Y-145489890D02*
X99199780Y-142489890D01*
X99199780Y-142489890D02*
X100799780Y-142489890D01*
X99199780Y-145489890D02*
X100799780Y-145489890D01*
X101749780Y-146989890D02*
X101749780Y-140989890D01*
X98249780Y-146989890D02*
X98249780Y-140989890D01*
X98249780Y-146989890D02*
X101749780Y-146989890D01*
X98249780Y-140989890D02*
X101749780Y-140989890D01*
X67000000Y-129575000D02*
X68000000Y-129575000D01*
X68000000Y-130925000D02*
X67000000Y-130925000D01*
X87000000Y-122825000D02*
X88000000Y-122825000D01*
X88000000Y-124175000D02*
X87000000Y-124175000D01*
X51000000Y-150825000D02*
X52000000Y-150825000D01*
X52000000Y-152175000D02*
X51000000Y-152175000D01*
X92000000Y-152825000D02*
X93000000Y-152825000D01*
X93000000Y-154175000D02*
X92000000Y-154175000D01*
X51000000Y-148325000D02*
X52000000Y-148325000D01*
X52000000Y-149675000D02*
X51000000Y-149675000D01*
X92000000Y-150825000D02*
X93000000Y-150825000D01*
X93000000Y-152175000D02*
X92000000Y-152175000D01*
X90000000Y-119500000D02*
X90000000Y-105000000D01*
X90000000Y-105000000D02*
X81000000Y-105000000D01*
X81000000Y-105000000D02*
X81000000Y-119500000D01*
X81000000Y-119500000D02*
X90000000Y-119500000D01*
X46760110Y-132949780D02*
X49260110Y-132949780D01*
X49260110Y-132949780D02*
X49260110Y-134049780D01*
X49260110Y-134049780D02*
X46760110Y-134049780D01*
X46760110Y-134049780D02*
X46760110Y-132949780D01*
X46510110Y-134299780D02*
X49510110Y-134299780D01*
X46510110Y-132699780D02*
X49510110Y-132699780D01*
X49510110Y-132699780D02*
X49510110Y-134299780D01*
X46510110Y-132699780D02*
X46510110Y-134299780D01*
X45010110Y-135249780D02*
X51010110Y-135249780D01*
X45010110Y-131749780D02*
X51010110Y-131749780D01*
X45010110Y-131749780D02*
X45010110Y-135249780D01*
X51010110Y-131749780D02*
X51010110Y-135249780D01*
X101739890Y-134050220D02*
X99239890Y-134050220D01*
X99239890Y-134050220D02*
X99239890Y-132950220D01*
X99239890Y-132950220D02*
X101739890Y-132950220D01*
X101739890Y-132950220D02*
X101739890Y-134050220D01*
X101989890Y-132700220D02*
X98989890Y-132700220D01*
X101989890Y-134300220D02*
X98989890Y-134300220D01*
X98989890Y-134300220D02*
X98989890Y-132700220D01*
X101989890Y-134300220D02*
X101989890Y-132700220D01*
X103489890Y-131750220D02*
X97489890Y-131750220D01*
X103489890Y-135250220D02*
X97489890Y-135250220D01*
X103489890Y-135250220D02*
X103489890Y-131750220D01*
X97489890Y-135250220D02*
X97489890Y-131750220D01*
X49000000Y-130675000D02*
X48000000Y-130675000D01*
X48000000Y-129325000D02*
X49000000Y-129325000D01*
X90000000Y-134175000D02*
X89000000Y-134175000D01*
X89000000Y-132825000D02*
X90000000Y-132825000D01*
X53056320Y-120700000D02*
X53056320Y-120899800D01*
X52599280Y-120750000D02*
X52599280Y-120899000D01*
X48453840Y-120700000D02*
X48453840Y-120849000D01*
X53051240Y-124300000D02*
X53051240Y-124151000D01*
X52599280Y-124300000D02*
X52599280Y-124151000D01*
X48448760Y-124300000D02*
X48448760Y-124151000D01*
X52599280Y-120551020D02*
X52599280Y-120749140D01*
X52599280Y-124498980D02*
X52599280Y-124300860D01*
X48453840Y-120503560D02*
X48453840Y-120701680D01*
X53056320Y-120503560D02*
X48453840Y-120503560D01*
X53056320Y-120503560D02*
X53056320Y-120701680D01*
X53051240Y-124498980D02*
X53051240Y-124300860D01*
X53051240Y-124498980D02*
X48448760Y-124498980D01*
X48448760Y-124498980D02*
X48448760Y-124300860D01*
X30308381Y-143333333D02*
X31022667Y-143333333D01*
X31165524Y-143380953D01*
X31260762Y-143476191D01*
X31308381Y-143619048D01*
X31308381Y-143714286D01*
X30403619Y-142904762D02*
X30356000Y-142857143D01*
X30308381Y-142761905D01*
X30308381Y-142523809D01*
X30356000Y-142428571D01*
X30403619Y-142380952D01*
X30498857Y-142333333D01*
X30594095Y-142333333D01*
X30736952Y-142380952D01*
X31308381Y-142952381D01*
X31308381Y-142333333D01*
X48414286Y-114100000D02*
X48442857Y-114128571D01*
X48471429Y-114214285D01*
X48471429Y-114271428D01*
X48442857Y-114357143D01*
X48385714Y-114414285D01*
X48328571Y-114442857D01*
X48214286Y-114471428D01*
X48128571Y-114471428D01*
X48014286Y-114442857D01*
X47957143Y-114414285D01*
X47900000Y-114357143D01*
X47871429Y-114271428D01*
X47871429Y-114214285D01*
X47900000Y-114128571D01*
X47928571Y-114100000D01*
X48471429Y-113528571D02*
X48471429Y-113871428D01*
X48471429Y-113700000D02*
X47871429Y-113700000D01*
X47957143Y-113757143D01*
X48014286Y-113814285D01*
X48042857Y-113871428D01*
X52071429Y-114428571D02*
X52071429Y-114771428D01*
X52071429Y-114600000D02*
X51471429Y-114600000D01*
X51557143Y-114657143D01*
X51614286Y-114714285D01*
X51642857Y-114771428D01*
X51471429Y-114057142D02*
X51471429Y-113999999D01*
X51500000Y-113942856D01*
X51528571Y-113914285D01*
X51585714Y-113885714D01*
X51700000Y-113857142D01*
X51842857Y-113857142D01*
X51957143Y-113885714D01*
X52014286Y-113914285D01*
X52042857Y-113942856D01*
X52071429Y-113999999D01*
X52071429Y-114057142D01*
X52042857Y-114114285D01*
X52014286Y-114142856D01*
X51957143Y-114171428D01*
X51842857Y-114199999D01*
X51700000Y-114199999D01*
X51585714Y-114171428D01*
X51528571Y-114142856D01*
X51500000Y-114114285D01*
X51471429Y-114057142D01*
X52071429Y-113599999D02*
X51471429Y-113599999D01*
X52071429Y-113257142D01*
X51471429Y-113257142D01*
X103414286Y-124600000D02*
X103442857Y-124628571D01*
X103471429Y-124714285D01*
X103471429Y-124771428D01*
X103442857Y-124857143D01*
X103385714Y-124914285D01*
X103328571Y-124942857D01*
X103214286Y-124971428D01*
X103128571Y-124971428D01*
X103014286Y-124942857D01*
X102957143Y-124914285D01*
X102900000Y-124857143D01*
X102871429Y-124771428D01*
X102871429Y-124714285D01*
X102900000Y-124628571D01*
X102928571Y-124600000D01*
X102928571Y-124371428D02*
X102900000Y-124342857D01*
X102871429Y-124285714D01*
X102871429Y-124142857D01*
X102900000Y-124085714D01*
X102928571Y-124057143D01*
X102985714Y-124028571D01*
X103042857Y-124028571D01*
X103128571Y-124057143D01*
X103471429Y-124400000D01*
X103471429Y-124028571D01*
X107071429Y-124928571D02*
X107071429Y-125271428D01*
X107071429Y-125100000D02*
X106471429Y-125100000D01*
X106557143Y-125157143D01*
X106614286Y-125214285D01*
X106642857Y-125271428D01*
X106471429Y-124557142D02*
X106471429Y-124499999D01*
X106500000Y-124442856D01*
X106528571Y-124414285D01*
X106585714Y-124385714D01*
X106700000Y-124357142D01*
X106842857Y-124357142D01*
X106957143Y-124385714D01*
X107014286Y-124414285D01*
X107042857Y-124442856D01*
X107071429Y-124499999D01*
X107071429Y-124557142D01*
X107042857Y-124614285D01*
X107014286Y-124642856D01*
X106957143Y-124671428D01*
X106842857Y-124699999D01*
X106700000Y-124699999D01*
X106585714Y-124671428D01*
X106528571Y-124642856D01*
X106500000Y-124614285D01*
X106471429Y-124557142D01*
X107071429Y-124099999D02*
X106471429Y-124099999D01*
X107071429Y-123757142D01*
X106471429Y-123757142D01*
X103414286Y-122100000D02*
X103442857Y-122128571D01*
X103471429Y-122214285D01*
X103471429Y-122271428D01*
X103442857Y-122357143D01*
X103385714Y-122414285D01*
X103328571Y-122442857D01*
X103214286Y-122471428D01*
X103128571Y-122471428D01*
X103014286Y-122442857D01*
X102957143Y-122414285D01*
X102900000Y-122357143D01*
X102871429Y-122271428D01*
X102871429Y-122214285D01*
X102900000Y-122128571D01*
X102928571Y-122100000D01*
X102871429Y-121900000D02*
X102871429Y-121528571D01*
X103100000Y-121728571D01*
X103100000Y-121642857D01*
X103128571Y-121585714D01*
X103157143Y-121557143D01*
X103214286Y-121528571D01*
X103357143Y-121528571D01*
X103414286Y-121557143D01*
X103442857Y-121585714D01*
X103471429Y-121642857D01*
X103471429Y-121814285D01*
X103442857Y-121871428D01*
X103414286Y-121900000D01*
X107071429Y-122714286D02*
X107071429Y-123057143D01*
X107071429Y-122885715D02*
X106471429Y-122885715D01*
X106557143Y-122942858D01*
X106614286Y-123000000D01*
X106642857Y-123057143D01*
X106471429Y-122342857D02*
X106471429Y-122285714D01*
X106500000Y-122228571D01*
X106528571Y-122200000D01*
X106585714Y-122171429D01*
X106700000Y-122142857D01*
X106842857Y-122142857D01*
X106957143Y-122171429D01*
X107014286Y-122200000D01*
X107042857Y-122228571D01*
X107071429Y-122285714D01*
X107071429Y-122342857D01*
X107042857Y-122400000D01*
X107014286Y-122428571D01*
X106957143Y-122457143D01*
X106842857Y-122485714D01*
X106700000Y-122485714D01*
X106585714Y-122457143D01*
X106528571Y-122428571D01*
X106500000Y-122400000D01*
X106471429Y-122342857D01*
X106471429Y-121771428D02*
X106471429Y-121714285D01*
X106500000Y-121657142D01*
X106528571Y-121628571D01*
X106585714Y-121600000D01*
X106700000Y-121571428D01*
X106842857Y-121571428D01*
X106957143Y-121600000D01*
X107014286Y-121628571D01*
X107042857Y-121657142D01*
X107071429Y-121714285D01*
X107071429Y-121771428D01*
X107042857Y-121828571D01*
X107014286Y-121857142D01*
X106957143Y-121885714D01*
X106842857Y-121914285D01*
X106700000Y-121914285D01*
X106585714Y-121885714D01*
X106528571Y-121857142D01*
X106500000Y-121828571D01*
X106471429Y-121771428D01*
X107071429Y-121314285D02*
X106471429Y-121314285D01*
X107071429Y-120971428D01*
X106471429Y-120971428D01*
X58414286Y-137100000D02*
X58442857Y-137128571D01*
X58471429Y-137214285D01*
X58471429Y-137271428D01*
X58442857Y-137357143D01*
X58385714Y-137414285D01*
X58328571Y-137442857D01*
X58214286Y-137471428D01*
X58128571Y-137471428D01*
X58014286Y-137442857D01*
X57957143Y-137414285D01*
X57900000Y-137357143D01*
X57871429Y-137271428D01*
X57871429Y-137214285D01*
X57900000Y-137128571D01*
X57928571Y-137100000D01*
X58071429Y-136585714D02*
X58471429Y-136585714D01*
X57842857Y-136728571D02*
X58271429Y-136871428D01*
X58271429Y-136500000D01*
X62071429Y-137714286D02*
X62071429Y-138057143D01*
X62071429Y-137885715D02*
X61471429Y-137885715D01*
X61557143Y-137942858D01*
X61614286Y-138000000D01*
X61642857Y-138057143D01*
X61471429Y-137342857D02*
X61471429Y-137285714D01*
X61500000Y-137228571D01*
X61528571Y-137200000D01*
X61585714Y-137171429D01*
X61700000Y-137142857D01*
X61842857Y-137142857D01*
X61957143Y-137171429D01*
X62014286Y-137200000D01*
X62042857Y-137228571D01*
X62071429Y-137285714D01*
X62071429Y-137342857D01*
X62042857Y-137400000D01*
X62014286Y-137428571D01*
X61957143Y-137457143D01*
X61842857Y-137485714D01*
X61700000Y-137485714D01*
X61585714Y-137457143D01*
X61528571Y-137428571D01*
X61500000Y-137400000D01*
X61471429Y-137342857D01*
X61471429Y-136771428D02*
X61471429Y-136714285D01*
X61500000Y-136657142D01*
X61528571Y-136628571D01*
X61585714Y-136600000D01*
X61700000Y-136571428D01*
X61842857Y-136571428D01*
X61957143Y-136600000D01*
X62014286Y-136628571D01*
X62042857Y-136657142D01*
X62071429Y-136714285D01*
X62071429Y-136771428D01*
X62042857Y-136828571D01*
X62014286Y-136857142D01*
X61957143Y-136885714D01*
X61842857Y-136914285D01*
X61700000Y-136914285D01*
X61585714Y-136885714D01*
X61528571Y-136857142D01*
X61500000Y-136828571D01*
X61471429Y-136771428D01*
X62071429Y-136314285D02*
X61471429Y-136314285D01*
X62071429Y-135971428D01*
X61471429Y-135971428D01*
X58414286Y-147100000D02*
X58442857Y-147128571D01*
X58471429Y-147214285D01*
X58471429Y-147271428D01*
X58442857Y-147357143D01*
X58385714Y-147414285D01*
X58328571Y-147442857D01*
X58214286Y-147471428D01*
X58128571Y-147471428D01*
X58014286Y-147442857D01*
X57957143Y-147414285D01*
X57900000Y-147357143D01*
X57871429Y-147271428D01*
X57871429Y-147214285D01*
X57900000Y-147128571D01*
X57928571Y-147100000D01*
X57871429Y-146557143D02*
X57871429Y-146842857D01*
X58157143Y-146871428D01*
X58128571Y-146842857D01*
X58100000Y-146785714D01*
X58100000Y-146642857D01*
X58128571Y-146585714D01*
X58157143Y-146557143D01*
X58214286Y-146528571D01*
X58357143Y-146528571D01*
X58414286Y-146557143D01*
X58442857Y-146585714D01*
X58471429Y-146642857D01*
X58471429Y-146785714D01*
X58442857Y-146842857D01*
X58414286Y-146871428D01*
X62071429Y-147814286D02*
X62071429Y-148157143D01*
X62071429Y-147985715D02*
X61471429Y-147985715D01*
X61557143Y-148042858D01*
X61614286Y-148100000D01*
X61642857Y-148157143D01*
X61471429Y-147442857D02*
X61471429Y-147385714D01*
X61500000Y-147328571D01*
X61528571Y-147300000D01*
X61585714Y-147271429D01*
X61700000Y-147242857D01*
X61842857Y-147242857D01*
X61957143Y-147271429D01*
X62014286Y-147300000D01*
X62042857Y-147328571D01*
X62071429Y-147385714D01*
X62071429Y-147442857D01*
X62042857Y-147500000D01*
X62014286Y-147528571D01*
X61957143Y-147557143D01*
X61842857Y-147585714D01*
X61700000Y-147585714D01*
X61585714Y-147557143D01*
X61528571Y-147528571D01*
X61500000Y-147500000D01*
X61471429Y-147442857D01*
X61471429Y-146871428D02*
X61471429Y-146814285D01*
X61500000Y-146757142D01*
X61528571Y-146728571D01*
X61585714Y-146700000D01*
X61700000Y-146671428D01*
X61842857Y-146671428D01*
X61957143Y-146700000D01*
X62014286Y-146728571D01*
X62042857Y-146757142D01*
X62071429Y-146814285D01*
X62071429Y-146871428D01*
X62042857Y-146928571D01*
X62014286Y-146957142D01*
X61957143Y-146985714D01*
X61842857Y-147014285D01*
X61700000Y-147014285D01*
X61585714Y-146985714D01*
X61528571Y-146957142D01*
X61500000Y-146928571D01*
X61471429Y-146871428D01*
X62071429Y-146414285D02*
X61471429Y-146414285D01*
X62071429Y-146071428D01*
X61471429Y-146071428D01*
X42314286Y-130100000D02*
X42342857Y-130128571D01*
X42371429Y-130214285D01*
X42371429Y-130271428D01*
X42342857Y-130357143D01*
X42285714Y-130414285D01*
X42228571Y-130442857D01*
X42114286Y-130471428D01*
X42028571Y-130471428D01*
X41914286Y-130442857D01*
X41857143Y-130414285D01*
X41800000Y-130357143D01*
X41771429Y-130271428D01*
X41771429Y-130214285D01*
X41800000Y-130128571D01*
X41828571Y-130100000D01*
X41771429Y-129585714D02*
X41771429Y-129700000D01*
X41800000Y-129757143D01*
X41828571Y-129785714D01*
X41914286Y-129842857D01*
X42028571Y-129871428D01*
X42257143Y-129871428D01*
X42314286Y-129842857D01*
X42342857Y-129814285D01*
X42371429Y-129757143D01*
X42371429Y-129642857D01*
X42342857Y-129585714D01*
X42314286Y-129557143D01*
X42257143Y-129528571D01*
X42114286Y-129528571D01*
X42057143Y-129557143D01*
X42028571Y-129585714D01*
X42000000Y-129642857D01*
X42000000Y-129757143D01*
X42028571Y-129814285D01*
X42057143Y-129842857D01*
X42114286Y-129871428D01*
X46171429Y-130428571D02*
X46171429Y-130771428D01*
X46171429Y-130600000D02*
X45571429Y-130600000D01*
X45657143Y-130657143D01*
X45714286Y-130714285D01*
X45742857Y-130771428D01*
X45571429Y-130057142D02*
X45571429Y-129999999D01*
X45600000Y-129942856D01*
X45628571Y-129914285D01*
X45685714Y-129885714D01*
X45800000Y-129857142D01*
X45942857Y-129857142D01*
X46057143Y-129885714D01*
X46114286Y-129914285D01*
X46142857Y-129942856D01*
X46171429Y-129999999D01*
X46171429Y-130057142D01*
X46142857Y-130114285D01*
X46114286Y-130142856D01*
X46057143Y-130171428D01*
X45942857Y-130199999D01*
X45800000Y-130199999D01*
X45685714Y-130171428D01*
X45628571Y-130142856D01*
X45600000Y-130114285D01*
X45571429Y-130057142D01*
X46171429Y-129599999D02*
X45571429Y-129599999D01*
X46171429Y-129257142D01*
X45571429Y-129257142D01*
X48014286Y-116850000D02*
X48042857Y-116878571D01*
X48071429Y-116964285D01*
X48071429Y-117021428D01*
X48042857Y-117107143D01*
X47985714Y-117164285D01*
X47928571Y-117192857D01*
X47814286Y-117221428D01*
X47728571Y-117221428D01*
X47614286Y-117192857D01*
X47557143Y-117164285D01*
X47500000Y-117107143D01*
X47471429Y-117021428D01*
X47471429Y-116964285D01*
X47500000Y-116878571D01*
X47528571Y-116850000D01*
X47471429Y-116650000D02*
X47471429Y-116250000D01*
X48071429Y-116507143D01*
X53171429Y-117235714D02*
X53571429Y-117235714D01*
X52942857Y-117378571D02*
X53371429Y-117521428D01*
X53371429Y-117150000D01*
X52971429Y-116978571D02*
X52971429Y-116578571D01*
X53571429Y-116835714D01*
X52971429Y-116349999D02*
X53457143Y-116349999D01*
X53514286Y-116321427D01*
X53542857Y-116292856D01*
X53571429Y-116235713D01*
X53571429Y-116121427D01*
X53542857Y-116064285D01*
X53514286Y-116035713D01*
X53457143Y-116007142D01*
X52971429Y-116007142D01*
X48914286Y-119350000D02*
X48942857Y-119378571D01*
X48971429Y-119464285D01*
X48971429Y-119521428D01*
X48942857Y-119607143D01*
X48885714Y-119664285D01*
X48828571Y-119692857D01*
X48714286Y-119721428D01*
X48628571Y-119721428D01*
X48514286Y-119692857D01*
X48457143Y-119664285D01*
X48400000Y-119607143D01*
X48371429Y-119521428D01*
X48371429Y-119464285D01*
X48400000Y-119378571D01*
X48428571Y-119350000D01*
X48628571Y-119007143D02*
X48600000Y-119064285D01*
X48571429Y-119092857D01*
X48514286Y-119121428D01*
X48485714Y-119121428D01*
X48428571Y-119092857D01*
X48400000Y-119064285D01*
X48371429Y-119007143D01*
X48371429Y-118892857D01*
X48400000Y-118835714D01*
X48428571Y-118807143D01*
X48485714Y-118778571D01*
X48514286Y-118778571D01*
X48571429Y-118807143D01*
X48600000Y-118835714D01*
X48628571Y-118892857D01*
X48628571Y-119007143D01*
X48657143Y-119064285D01*
X48685714Y-119092857D01*
X48742857Y-119121428D01*
X48857143Y-119121428D01*
X48914286Y-119092857D01*
X48942857Y-119064285D01*
X48971429Y-119007143D01*
X48971429Y-118892857D01*
X48942857Y-118835714D01*
X48914286Y-118807143D01*
X48857143Y-118778571D01*
X48742857Y-118778571D01*
X48685714Y-118807143D01*
X48657143Y-118835714D01*
X48628571Y-118892857D01*
X52571429Y-119964286D02*
X52571429Y-120307143D01*
X52571429Y-120135715D02*
X51971429Y-120135715D01*
X52057143Y-120192858D01*
X52114286Y-120250000D01*
X52142857Y-120307143D01*
X51971429Y-119592857D02*
X51971429Y-119535714D01*
X52000000Y-119478571D01*
X52028571Y-119450000D01*
X52085714Y-119421429D01*
X52200000Y-119392857D01*
X52342857Y-119392857D01*
X52457143Y-119421429D01*
X52514286Y-119450000D01*
X52542857Y-119478571D01*
X52571429Y-119535714D01*
X52571429Y-119592857D01*
X52542857Y-119650000D01*
X52514286Y-119678571D01*
X52457143Y-119707143D01*
X52342857Y-119735714D01*
X52200000Y-119735714D01*
X52085714Y-119707143D01*
X52028571Y-119678571D01*
X52000000Y-119650000D01*
X51971429Y-119592857D01*
X51971429Y-119021428D02*
X51971429Y-118964285D01*
X52000000Y-118907142D01*
X52028571Y-118878571D01*
X52085714Y-118850000D01*
X52200000Y-118821428D01*
X52342857Y-118821428D01*
X52457143Y-118850000D01*
X52514286Y-118878571D01*
X52542857Y-118907142D01*
X52571429Y-118964285D01*
X52571429Y-119021428D01*
X52542857Y-119078571D01*
X52514286Y-119107142D01*
X52457143Y-119135714D01*
X52342857Y-119164285D01*
X52200000Y-119164285D01*
X52085714Y-119135714D01*
X52028571Y-119107142D01*
X52000000Y-119078571D01*
X51971429Y-119021428D01*
X52571429Y-118564285D02*
X51971429Y-118564285D01*
X52571429Y-118221428D01*
X51971429Y-118221428D01*
X95900000Y-142314286D02*
X95871429Y-142342857D01*
X95785715Y-142371429D01*
X95728572Y-142371429D01*
X95642857Y-142342857D01*
X95585715Y-142285714D01*
X95557143Y-142228571D01*
X95528572Y-142114286D01*
X95528572Y-142028571D01*
X95557143Y-141914286D01*
X95585715Y-141857143D01*
X95642857Y-141800000D01*
X95728572Y-141771429D01*
X95785715Y-141771429D01*
X95871429Y-141800000D01*
X95900000Y-141828571D01*
X96185715Y-142371429D02*
X96300000Y-142371429D01*
X96357143Y-142342857D01*
X96385715Y-142314286D01*
X96442857Y-142228571D01*
X96471429Y-142114286D01*
X96471429Y-141885714D01*
X96442857Y-141828571D01*
X96414286Y-141800000D01*
X96357143Y-141771429D01*
X96242857Y-141771429D01*
X96185715Y-141800000D01*
X96157143Y-141828571D01*
X96128572Y-141885714D01*
X96128572Y-142028571D01*
X96157143Y-142085714D01*
X96185715Y-142114286D01*
X96242857Y-142142857D01*
X96357143Y-142142857D01*
X96414286Y-142114286D01*
X96442857Y-142085714D01*
X96471429Y-142028571D01*
X97171429Y-144714286D02*
X97171429Y-145057143D01*
X97171429Y-144885715D02*
X96571429Y-144885715D01*
X96657143Y-144942858D01*
X96714286Y-145000000D01*
X96742857Y-145057143D01*
X96571429Y-144342857D02*
X96571429Y-144285714D01*
X96600000Y-144228571D01*
X96628571Y-144200000D01*
X96685714Y-144171429D01*
X96800000Y-144142857D01*
X96942857Y-144142857D01*
X97057143Y-144171429D01*
X97114286Y-144200000D01*
X97142857Y-144228571D01*
X97171429Y-144285714D01*
X97171429Y-144342857D01*
X97142857Y-144400000D01*
X97114286Y-144428571D01*
X97057143Y-144457143D01*
X96942857Y-144485714D01*
X96800000Y-144485714D01*
X96685714Y-144457143D01*
X96628571Y-144428571D01*
X96600000Y-144400000D01*
X96571429Y-144342857D01*
X96571429Y-143771428D02*
X96571429Y-143714285D01*
X96600000Y-143657142D01*
X96628571Y-143628571D01*
X96685714Y-143600000D01*
X96800000Y-143571428D01*
X96942857Y-143571428D01*
X97057143Y-143600000D01*
X97114286Y-143628571D01*
X97142857Y-143657142D01*
X97171429Y-143714285D01*
X97171429Y-143771428D01*
X97142857Y-143828571D01*
X97114286Y-143857142D01*
X97057143Y-143885714D01*
X96942857Y-143914285D01*
X96800000Y-143914285D01*
X96685714Y-143885714D01*
X96628571Y-143857142D01*
X96600000Y-143828571D01*
X96571429Y-143771428D01*
X97171429Y-143314285D02*
X96571429Y-143314285D01*
X97171429Y-142971428D01*
X96571429Y-142971428D01*
X63414286Y-147485715D02*
X63442857Y-147514286D01*
X63471429Y-147600000D01*
X63471429Y-147657143D01*
X63442857Y-147742858D01*
X63385714Y-147800000D01*
X63328571Y-147828572D01*
X63214286Y-147857143D01*
X63128571Y-147857143D01*
X63014286Y-147828572D01*
X62957143Y-147800000D01*
X62900000Y-147742858D01*
X62871429Y-147657143D01*
X62871429Y-147600000D01*
X62900000Y-147514286D01*
X62928571Y-147485715D01*
X63471429Y-146914286D02*
X63471429Y-147257143D01*
X63471429Y-147085715D02*
X62871429Y-147085715D01*
X62957143Y-147142858D01*
X63014286Y-147200000D01*
X63042857Y-147257143D01*
X62871429Y-146542857D02*
X62871429Y-146485714D01*
X62900000Y-146428571D01*
X62928571Y-146400000D01*
X62985714Y-146371429D01*
X63100000Y-146342857D01*
X63242857Y-146342857D01*
X63357143Y-146371429D01*
X63414286Y-146400000D01*
X63442857Y-146428571D01*
X63471429Y-146485714D01*
X63471429Y-146542857D01*
X63442857Y-146600000D01*
X63414286Y-146628571D01*
X63357143Y-146657143D01*
X63242857Y-146685714D01*
X63100000Y-146685714D01*
X62985714Y-146657143D01*
X62928571Y-146628571D01*
X62900000Y-146600000D01*
X62871429Y-146542857D01*
X67071429Y-147714286D02*
X67071429Y-148057143D01*
X67071429Y-147885715D02*
X66471429Y-147885715D01*
X66557143Y-147942858D01*
X66614286Y-148000000D01*
X66642857Y-148057143D01*
X66471429Y-147342857D02*
X66471429Y-147285714D01*
X66500000Y-147228571D01*
X66528571Y-147200000D01*
X66585714Y-147171429D01*
X66700000Y-147142857D01*
X66842857Y-147142857D01*
X66957143Y-147171429D01*
X67014286Y-147200000D01*
X67042857Y-147228571D01*
X67071429Y-147285714D01*
X67071429Y-147342857D01*
X67042857Y-147400000D01*
X67014286Y-147428571D01*
X66957143Y-147457143D01*
X66842857Y-147485714D01*
X66700000Y-147485714D01*
X66585714Y-147457143D01*
X66528571Y-147428571D01*
X66500000Y-147400000D01*
X66471429Y-147342857D01*
X66471429Y-146771428D02*
X66471429Y-146714285D01*
X66500000Y-146657142D01*
X66528571Y-146628571D01*
X66585714Y-146600000D01*
X66700000Y-146571428D01*
X66842857Y-146571428D01*
X66957143Y-146600000D01*
X67014286Y-146628571D01*
X67042857Y-146657142D01*
X67071429Y-146714285D01*
X67071429Y-146771428D01*
X67042857Y-146828571D01*
X67014286Y-146857142D01*
X66957143Y-146885714D01*
X66842857Y-146914285D01*
X66700000Y-146914285D01*
X66585714Y-146885714D01*
X66528571Y-146857142D01*
X66500000Y-146828571D01*
X66471429Y-146771428D01*
X67071429Y-146314285D02*
X66471429Y-146314285D01*
X67071429Y-145971428D01*
X66471429Y-145971428D01*
X51414286Y-130385715D02*
X51442857Y-130414286D01*
X51471429Y-130500000D01*
X51471429Y-130557143D01*
X51442857Y-130642858D01*
X51385714Y-130700000D01*
X51328571Y-130728572D01*
X51214286Y-130757143D01*
X51128571Y-130757143D01*
X51014286Y-130728572D01*
X50957143Y-130700000D01*
X50900000Y-130642858D01*
X50871429Y-130557143D01*
X50871429Y-130500000D01*
X50900000Y-130414286D01*
X50928571Y-130385715D01*
X51471429Y-129814286D02*
X51471429Y-130157143D01*
X51471429Y-129985715D02*
X50871429Y-129985715D01*
X50957143Y-130042858D01*
X51014286Y-130100000D01*
X51042857Y-130157143D01*
X51471429Y-129242857D02*
X51471429Y-129585714D01*
X51471429Y-129414286D02*
X50871429Y-129414286D01*
X50957143Y-129471429D01*
X51014286Y-129528571D01*
X51042857Y-129585714D01*
X55071429Y-130714286D02*
X55071429Y-131057143D01*
X55071429Y-130885715D02*
X54471429Y-130885715D01*
X54557143Y-130942858D01*
X54614286Y-131000000D01*
X54642857Y-131057143D01*
X54471429Y-130342857D02*
X54471429Y-130285714D01*
X54500000Y-130228571D01*
X54528571Y-130200000D01*
X54585714Y-130171429D01*
X54700000Y-130142857D01*
X54842857Y-130142857D01*
X54957143Y-130171429D01*
X55014286Y-130200000D01*
X55042857Y-130228571D01*
X55071429Y-130285714D01*
X55071429Y-130342857D01*
X55042857Y-130400000D01*
X55014286Y-130428571D01*
X54957143Y-130457143D01*
X54842857Y-130485714D01*
X54700000Y-130485714D01*
X54585714Y-130457143D01*
X54528571Y-130428571D01*
X54500000Y-130400000D01*
X54471429Y-130342857D01*
X54471429Y-129771428D02*
X54471429Y-129714285D01*
X54500000Y-129657142D01*
X54528571Y-129628571D01*
X54585714Y-129600000D01*
X54700000Y-129571428D01*
X54842857Y-129571428D01*
X54957143Y-129600000D01*
X55014286Y-129628571D01*
X55042857Y-129657142D01*
X55071429Y-129714285D01*
X55071429Y-129771428D01*
X55042857Y-129828571D01*
X55014286Y-129857142D01*
X54957143Y-129885714D01*
X54842857Y-129914285D01*
X54700000Y-129914285D01*
X54585714Y-129885714D01*
X54528571Y-129857142D01*
X54500000Y-129828571D01*
X54471429Y-129771428D01*
X55071429Y-129314285D02*
X54471429Y-129314285D01*
X55071429Y-128971428D01*
X54471429Y-128971428D01*
X78414286Y-141885715D02*
X78442857Y-141914286D01*
X78471429Y-142000000D01*
X78471429Y-142057143D01*
X78442857Y-142142858D01*
X78385714Y-142200000D01*
X78328571Y-142228572D01*
X78214286Y-142257143D01*
X78128571Y-142257143D01*
X78014286Y-142228572D01*
X77957143Y-142200000D01*
X77900000Y-142142858D01*
X77871429Y-142057143D01*
X77871429Y-142000000D01*
X77900000Y-141914286D01*
X77928571Y-141885715D01*
X78471429Y-141314286D02*
X78471429Y-141657143D01*
X78471429Y-141485715D02*
X77871429Y-141485715D01*
X77957143Y-141542858D01*
X78014286Y-141600000D01*
X78042857Y-141657143D01*
X77928571Y-141085714D02*
X77900000Y-141057143D01*
X77871429Y-141000000D01*
X77871429Y-140857143D01*
X77900000Y-140800000D01*
X77928571Y-140771429D01*
X77985714Y-140742857D01*
X78042857Y-140742857D01*
X78128571Y-140771429D01*
X78471429Y-141114286D01*
X78471429Y-140742857D01*
X82171429Y-142214286D02*
X82171429Y-142557143D01*
X82171429Y-142385715D02*
X81571429Y-142385715D01*
X81657143Y-142442858D01*
X81714286Y-142500000D01*
X81742857Y-142557143D01*
X81571429Y-141842857D02*
X81571429Y-141785714D01*
X81600000Y-141728571D01*
X81628571Y-141700000D01*
X81685714Y-141671429D01*
X81800000Y-141642857D01*
X81942857Y-141642857D01*
X82057143Y-141671429D01*
X82114286Y-141700000D01*
X82142857Y-141728571D01*
X82171429Y-141785714D01*
X82171429Y-141842857D01*
X82142857Y-141900000D01*
X82114286Y-141928571D01*
X82057143Y-141957143D01*
X81942857Y-141985714D01*
X81800000Y-141985714D01*
X81685714Y-141957143D01*
X81628571Y-141928571D01*
X81600000Y-141900000D01*
X81571429Y-141842857D01*
X81571429Y-141271428D02*
X81571429Y-141214285D01*
X81600000Y-141157142D01*
X81628571Y-141128571D01*
X81685714Y-141100000D01*
X81800000Y-141071428D01*
X81942857Y-141071428D01*
X82057143Y-141100000D01*
X82114286Y-141128571D01*
X82142857Y-141157142D01*
X82171429Y-141214285D01*
X82171429Y-141271428D01*
X82142857Y-141328571D01*
X82114286Y-141357142D01*
X82057143Y-141385714D01*
X81942857Y-141414285D01*
X81800000Y-141414285D01*
X81685714Y-141385714D01*
X81628571Y-141357142D01*
X81600000Y-141328571D01*
X81571429Y-141271428D01*
X82171429Y-140814285D02*
X81571429Y-140814285D01*
X82171429Y-140471428D01*
X81571429Y-140471428D01*
X41357143Y-122700000D02*
X41357143Y-122900000D01*
X41671429Y-122900000D02*
X41071429Y-122900000D01*
X41071429Y-122614286D01*
X41671429Y-122071428D02*
X41671429Y-122414285D01*
X41671429Y-122242857D02*
X41071429Y-122242857D01*
X41157143Y-122300000D01*
X41214286Y-122357142D01*
X41242857Y-122414285D01*
X104800000Y-130997143D02*
X104600000Y-130997143D01*
X104600000Y-131311429D02*
X104600000Y-130711429D01*
X104885714Y-130711429D01*
X105085715Y-130768571D02*
X105114286Y-130740000D01*
X105171429Y-130711429D01*
X105314286Y-130711429D01*
X105371429Y-130740000D01*
X105400000Y-130768571D01*
X105428572Y-130825714D01*
X105428572Y-130882857D01*
X105400000Y-130968571D01*
X105057143Y-131311429D01*
X105428572Y-131311429D01*
X41457143Y-126700000D02*
X41457143Y-126900000D01*
X41771429Y-126900000D02*
X41171429Y-126900000D01*
X41171429Y-126614286D01*
X41171429Y-126442857D02*
X41171429Y-126071428D01*
X41400000Y-126271428D01*
X41400000Y-126185714D01*
X41428571Y-126128571D01*
X41457143Y-126100000D01*
X41514286Y-126071428D01*
X41657143Y-126071428D01*
X41714286Y-126100000D01*
X41742857Y-126128571D01*
X41771429Y-126185714D01*
X41771429Y-126357142D01*
X41742857Y-126414285D01*
X41714286Y-126442857D01*
X78471429Y-146600000D02*
X78185714Y-146800000D01*
X78471429Y-146942857D02*
X77871429Y-146942857D01*
X77871429Y-146714285D01*
X77900000Y-146657143D01*
X77928571Y-146628571D01*
X77985714Y-146600000D01*
X78071429Y-146600000D01*
X78128571Y-146628571D01*
X78157143Y-146657143D01*
X78185714Y-146714285D01*
X78185714Y-146942857D01*
X77871429Y-146085714D02*
X77871429Y-146200000D01*
X77900000Y-146257143D01*
X77928571Y-146285714D01*
X78014286Y-146342857D01*
X78128571Y-146371428D01*
X78357143Y-146371428D01*
X78414286Y-146342857D01*
X78442857Y-146314285D01*
X78471429Y-146257143D01*
X78471429Y-146142857D01*
X78442857Y-146085714D01*
X78414286Y-146057143D01*
X78357143Y-146028571D01*
X78214286Y-146028571D01*
X78157143Y-146057143D01*
X78128571Y-146085714D01*
X78100000Y-146142857D01*
X78100000Y-146257143D01*
X78128571Y-146314285D01*
X78157143Y-146342857D01*
X78214286Y-146371428D01*
X81771429Y-146957143D02*
X82171429Y-146957143D01*
X81542857Y-147100000D02*
X81971429Y-147242857D01*
X81971429Y-146871429D01*
X81571429Y-146700000D02*
X81571429Y-146300000D01*
X82171429Y-146557143D01*
X81571429Y-145957142D02*
X81571429Y-145899999D01*
X81600000Y-145842856D01*
X81628571Y-145814285D01*
X81685714Y-145785714D01*
X81800000Y-145757142D01*
X81942857Y-145757142D01*
X82057143Y-145785714D01*
X82114286Y-145814285D01*
X82142857Y-145842856D01*
X82171429Y-145899999D01*
X82171429Y-145957142D01*
X82142857Y-146014285D01*
X82114286Y-146042856D01*
X82057143Y-146071428D01*
X81942857Y-146099999D01*
X81800000Y-146099999D01*
X81685714Y-146071428D01*
X81628571Y-146042856D01*
X81600000Y-146014285D01*
X81571429Y-145957142D01*
X78471429Y-144100000D02*
X78185714Y-144300000D01*
X78471429Y-144442857D02*
X77871429Y-144442857D01*
X77871429Y-144214285D01*
X77900000Y-144157143D01*
X77928571Y-144128571D01*
X77985714Y-144100000D01*
X78071429Y-144100000D01*
X78128571Y-144128571D01*
X78157143Y-144157143D01*
X78185714Y-144214285D01*
X78185714Y-144442857D01*
X77871429Y-143900000D02*
X77871429Y-143500000D01*
X78471429Y-143757143D01*
X81771429Y-144457143D02*
X82171429Y-144457143D01*
X81542857Y-144600000D02*
X81971429Y-144742857D01*
X81971429Y-144371429D01*
X81571429Y-144200000D02*
X81571429Y-143800000D01*
X82171429Y-144057143D01*
X81571429Y-143457142D02*
X81571429Y-143399999D01*
X81600000Y-143342856D01*
X81628571Y-143314285D01*
X81685714Y-143285714D01*
X81800000Y-143257142D01*
X81942857Y-143257142D01*
X82057143Y-143285714D01*
X82114286Y-143314285D01*
X82142857Y-143342856D01*
X82171429Y-143399999D01*
X82171429Y-143457142D01*
X82142857Y-143514285D01*
X82114286Y-143542856D01*
X82057143Y-143571428D01*
X81942857Y-143599999D01*
X81800000Y-143599999D01*
X81685714Y-143571428D01*
X81628571Y-143542856D01*
X81600000Y-143514285D01*
X81571429Y-143457142D01*
X81471429Y-126100000D02*
X81185714Y-126300000D01*
X81471429Y-126442857D02*
X80871429Y-126442857D01*
X80871429Y-126214285D01*
X80900000Y-126157143D01*
X80928571Y-126128571D01*
X80985714Y-126100000D01*
X81071429Y-126100000D01*
X81128571Y-126128571D01*
X81157143Y-126157143D01*
X81185714Y-126214285D01*
X81185714Y-126442857D01*
X81128571Y-125757143D02*
X81100000Y-125814285D01*
X81071429Y-125842857D01*
X81014286Y-125871428D01*
X80985714Y-125871428D01*
X80928571Y-125842857D01*
X80900000Y-125814285D01*
X80871429Y-125757143D01*
X80871429Y-125642857D01*
X80900000Y-125585714D01*
X80928571Y-125557143D01*
X80985714Y-125528571D01*
X81014286Y-125528571D01*
X81071429Y-125557143D01*
X81100000Y-125585714D01*
X81128571Y-125642857D01*
X81128571Y-125757143D01*
X81157143Y-125814285D01*
X81185714Y-125842857D01*
X81242857Y-125871428D01*
X81357143Y-125871428D01*
X81414286Y-125842857D01*
X81442857Y-125814285D01*
X81471429Y-125757143D01*
X81471429Y-125642857D01*
X81442857Y-125585714D01*
X81414286Y-125557143D01*
X81357143Y-125528571D01*
X81242857Y-125528571D01*
X81185714Y-125557143D01*
X81157143Y-125585714D01*
X81128571Y-125642857D01*
X84671429Y-126457143D02*
X85071429Y-126457143D01*
X84442857Y-126600000D02*
X84871429Y-126742857D01*
X84871429Y-126371429D01*
X84471429Y-126200000D02*
X84471429Y-125800000D01*
X85071429Y-126057143D01*
X84471429Y-125457142D02*
X84471429Y-125399999D01*
X84500000Y-125342856D01*
X84528571Y-125314285D01*
X84585714Y-125285714D01*
X84700000Y-125257142D01*
X84842857Y-125257142D01*
X84957143Y-125285714D01*
X85014286Y-125314285D01*
X85042857Y-125342856D01*
X85071429Y-125399999D01*
X85071429Y-125457142D01*
X85042857Y-125514285D01*
X85014286Y-125542856D01*
X84957143Y-125571428D01*
X84842857Y-125599999D01*
X84700000Y-125599999D01*
X84585714Y-125571428D01*
X84528571Y-125542856D01*
X84500000Y-125514285D01*
X84471429Y-125457142D01*
X81471429Y-123600000D02*
X81185714Y-123800000D01*
X81471429Y-123942857D02*
X80871429Y-123942857D01*
X80871429Y-123714285D01*
X80900000Y-123657143D01*
X80928571Y-123628571D01*
X80985714Y-123600000D01*
X81071429Y-123600000D01*
X81128571Y-123628571D01*
X81157143Y-123657143D01*
X81185714Y-123714285D01*
X81185714Y-123942857D01*
X81471429Y-123314285D02*
X81471429Y-123200000D01*
X81442857Y-123142857D01*
X81414286Y-123114285D01*
X81328571Y-123057143D01*
X81214286Y-123028571D01*
X80985714Y-123028571D01*
X80928571Y-123057143D01*
X80900000Y-123085714D01*
X80871429Y-123142857D01*
X80871429Y-123257143D01*
X80900000Y-123314285D01*
X80928571Y-123342857D01*
X80985714Y-123371428D01*
X81128571Y-123371428D01*
X81185714Y-123342857D01*
X81214286Y-123314285D01*
X81242857Y-123257143D01*
X81242857Y-123142857D01*
X81214286Y-123085714D01*
X81185714Y-123057143D01*
X81128571Y-123028571D01*
X84671429Y-124071429D02*
X85071429Y-124071429D01*
X84442857Y-124214286D02*
X84871429Y-124357143D01*
X84871429Y-123985715D01*
X85071429Y-123757143D02*
X84471429Y-123757143D01*
X85071429Y-123414286D02*
X84728571Y-123671429D01*
X84471429Y-123414286D02*
X84814286Y-123757143D01*
X84471429Y-123214286D02*
X84471429Y-122814286D01*
X85071429Y-123071429D01*
X91971429Y-117885715D02*
X91685714Y-118085715D01*
X91971429Y-118228572D02*
X91371429Y-118228572D01*
X91371429Y-118000000D01*
X91400000Y-117942858D01*
X91428571Y-117914286D01*
X91485714Y-117885715D01*
X91571429Y-117885715D01*
X91628571Y-117914286D01*
X91657143Y-117942858D01*
X91685714Y-118000000D01*
X91685714Y-118228572D01*
X91971429Y-117314286D02*
X91971429Y-117657143D01*
X91971429Y-117485715D02*
X91371429Y-117485715D01*
X91457143Y-117542858D01*
X91514286Y-117600000D01*
X91542857Y-117657143D01*
X91371429Y-116942857D02*
X91371429Y-116885714D01*
X91400000Y-116828571D01*
X91428571Y-116800000D01*
X91485714Y-116771429D01*
X91600000Y-116742857D01*
X91742857Y-116742857D01*
X91857143Y-116771429D01*
X91914286Y-116800000D01*
X91942857Y-116828571D01*
X91971429Y-116885714D01*
X91971429Y-116942857D01*
X91942857Y-117000000D01*
X91914286Y-117028571D01*
X91857143Y-117057143D01*
X91742857Y-117085714D01*
X91600000Y-117085714D01*
X91485714Y-117057143D01*
X91428571Y-117028571D01*
X91400000Y-117000000D01*
X91371429Y-116942857D01*
X95271429Y-117957143D02*
X95671429Y-117957143D01*
X95042857Y-118100000D02*
X95471429Y-118242857D01*
X95471429Y-117871429D01*
X95071429Y-117700000D02*
X95071429Y-117300000D01*
X95671429Y-117557143D01*
X95071429Y-116957142D02*
X95071429Y-116899999D01*
X95100000Y-116842856D01*
X95128571Y-116814285D01*
X95185714Y-116785714D01*
X95300000Y-116757142D01*
X95442857Y-116757142D01*
X95557143Y-116785714D01*
X95614286Y-116814285D01*
X95642857Y-116842856D01*
X95671429Y-116899999D01*
X95671429Y-116957142D01*
X95642857Y-117014285D01*
X95614286Y-117042856D01*
X95557143Y-117071428D01*
X95442857Y-117099999D01*
X95300000Y-117099999D01*
X95185714Y-117071428D01*
X95128571Y-117042856D01*
X95100000Y-117014285D01*
X95071429Y-116957142D01*
X96471429Y-117785715D02*
X96185714Y-117985715D01*
X96471429Y-118128572D02*
X95871429Y-118128572D01*
X95871429Y-117900000D01*
X95900000Y-117842858D01*
X95928571Y-117814286D01*
X95985714Y-117785715D01*
X96071429Y-117785715D01*
X96128571Y-117814286D01*
X96157143Y-117842858D01*
X96185714Y-117900000D01*
X96185714Y-118128572D01*
X96471429Y-117214286D02*
X96471429Y-117557143D01*
X96471429Y-117385715D02*
X95871429Y-117385715D01*
X95957143Y-117442858D01*
X96014286Y-117500000D01*
X96042857Y-117557143D01*
X96471429Y-116642857D02*
X96471429Y-116985714D01*
X96471429Y-116814286D02*
X95871429Y-116814286D01*
X95957143Y-116871429D01*
X96014286Y-116928571D01*
X96042857Y-116985714D01*
X99771429Y-117957143D02*
X100171429Y-117957143D01*
X99542857Y-118100000D02*
X99971429Y-118242857D01*
X99971429Y-117871429D01*
X99571429Y-117700000D02*
X99571429Y-117300000D01*
X100171429Y-117557143D01*
X99571429Y-116957142D02*
X99571429Y-116899999D01*
X99600000Y-116842856D01*
X99628571Y-116814285D01*
X99685714Y-116785714D01*
X99800000Y-116757142D01*
X99942857Y-116757142D01*
X100057143Y-116785714D01*
X100114286Y-116814285D01*
X100142857Y-116842856D01*
X100171429Y-116899999D01*
X100171429Y-116957142D01*
X100142857Y-117014285D01*
X100114286Y-117042856D01*
X100057143Y-117071428D01*
X99942857Y-117099999D01*
X99800000Y-117099999D01*
X99685714Y-117071428D01*
X99628571Y-117042856D01*
X99600000Y-117014285D01*
X99571429Y-116957142D01*
X95014285Y-139471429D02*
X94814285Y-139185714D01*
X94671428Y-139471429D02*
X94671428Y-138871429D01*
X94900000Y-138871429D01*
X94957142Y-138900000D01*
X94985714Y-138928571D01*
X95014285Y-138985714D01*
X95014285Y-139071429D01*
X94985714Y-139128571D01*
X94957142Y-139157143D01*
X94900000Y-139185714D01*
X94671428Y-139185714D01*
X95585714Y-139471429D02*
X95242857Y-139471429D01*
X95414285Y-139471429D02*
X95414285Y-138871429D01*
X95357142Y-138957143D01*
X95300000Y-139014286D01*
X95242857Y-139042857D01*
X95814286Y-138928571D02*
X95842857Y-138900000D01*
X95900000Y-138871429D01*
X96042857Y-138871429D01*
X96100000Y-138900000D01*
X96128571Y-138928571D01*
X96157143Y-138985714D01*
X96157143Y-139042857D01*
X96128571Y-139128571D01*
X95785714Y-139471429D01*
X96157143Y-139471429D01*
X96771429Y-140957143D02*
X97171429Y-140957143D01*
X96542857Y-141100000D02*
X96971429Y-141242857D01*
X96971429Y-140871429D01*
X96571429Y-140700000D02*
X96571429Y-140300000D01*
X97171429Y-140557143D01*
X96571429Y-139957142D02*
X96571429Y-139899999D01*
X96600000Y-139842856D01*
X96628571Y-139814285D01*
X96685714Y-139785714D01*
X96800000Y-139757142D01*
X96942857Y-139757142D01*
X97057143Y-139785714D01*
X97114286Y-139814285D01*
X97142857Y-139842856D01*
X97171429Y-139899999D01*
X97171429Y-139957142D01*
X97142857Y-140014285D01*
X97114286Y-140042856D01*
X97057143Y-140071428D01*
X96942857Y-140099999D01*
X96800000Y-140099999D01*
X96685714Y-140071428D01*
X96628571Y-140042856D01*
X96600000Y-140014285D01*
X96571429Y-139957142D01*
X82471429Y-136385715D02*
X82185714Y-136585715D01*
X82471429Y-136728572D02*
X81871429Y-136728572D01*
X81871429Y-136500000D01*
X81900000Y-136442858D01*
X81928571Y-136414286D01*
X81985714Y-136385715D01*
X82071429Y-136385715D01*
X82128571Y-136414286D01*
X82157143Y-136442858D01*
X82185714Y-136500000D01*
X82185714Y-136728572D01*
X82471429Y-135814286D02*
X82471429Y-136157143D01*
X82471429Y-135985715D02*
X81871429Y-135985715D01*
X81957143Y-136042858D01*
X82014286Y-136100000D01*
X82042857Y-136157143D01*
X81871429Y-135614286D02*
X81871429Y-135242857D01*
X82100000Y-135442857D01*
X82100000Y-135357143D01*
X82128571Y-135300000D01*
X82157143Y-135271429D01*
X82214286Y-135242857D01*
X82357143Y-135242857D01*
X82414286Y-135271429D01*
X82442857Y-135300000D01*
X82471429Y-135357143D01*
X82471429Y-135528571D01*
X82442857Y-135585714D01*
X82414286Y-135614286D01*
X85771429Y-136457143D02*
X86171429Y-136457143D01*
X85542857Y-136600000D02*
X85971429Y-136742857D01*
X85971429Y-136371429D01*
X85571429Y-136200000D02*
X85571429Y-135800000D01*
X86171429Y-136057143D01*
X85571429Y-135457142D02*
X85571429Y-135399999D01*
X85600000Y-135342856D01*
X85628571Y-135314285D01*
X85685714Y-135285714D01*
X85800000Y-135257142D01*
X85942857Y-135257142D01*
X86057143Y-135285714D01*
X86114286Y-135314285D01*
X86142857Y-135342856D01*
X86171429Y-135399999D01*
X86171429Y-135457142D01*
X86142857Y-135514285D01*
X86114286Y-135542856D01*
X86057143Y-135571428D01*
X85942857Y-135599999D01*
X85800000Y-135599999D01*
X85685714Y-135571428D01*
X85628571Y-135542856D01*
X85600000Y-135514285D01*
X85571429Y-135457142D01*
X82471429Y-133285715D02*
X82185714Y-133485715D01*
X82471429Y-133628572D02*
X81871429Y-133628572D01*
X81871429Y-133400000D01*
X81900000Y-133342858D01*
X81928571Y-133314286D01*
X81985714Y-133285715D01*
X82071429Y-133285715D01*
X82128571Y-133314286D01*
X82157143Y-133342858D01*
X82185714Y-133400000D01*
X82185714Y-133628572D01*
X82471429Y-132714286D02*
X82471429Y-133057143D01*
X82471429Y-132885715D02*
X81871429Y-132885715D01*
X81957143Y-132942858D01*
X82014286Y-133000000D01*
X82042857Y-133057143D01*
X82071429Y-132200000D02*
X82471429Y-132200000D01*
X81842857Y-132342857D02*
X82271429Y-132485714D01*
X82271429Y-132114286D01*
X85771429Y-133457143D02*
X86171429Y-133457143D01*
X85542857Y-133600000D02*
X85971429Y-133742857D01*
X85971429Y-133371429D01*
X85571429Y-133200000D02*
X85571429Y-132800000D01*
X86171429Y-133057143D01*
X85571429Y-132457142D02*
X85571429Y-132399999D01*
X85600000Y-132342856D01*
X85628571Y-132314285D01*
X85685714Y-132285714D01*
X85800000Y-132257142D01*
X85942857Y-132257142D01*
X86057143Y-132285714D01*
X86114286Y-132314285D01*
X86142857Y-132342856D01*
X86171429Y-132399999D01*
X86171429Y-132457142D01*
X86142857Y-132514285D01*
X86114286Y-132542856D01*
X86057143Y-132571428D01*
X85942857Y-132599999D01*
X85800000Y-132599999D01*
X85685714Y-132571428D01*
X85628571Y-132542856D01*
X85600000Y-132514285D01*
X85571429Y-132457142D01*
X73971429Y-117885715D02*
X73685714Y-118085715D01*
X73971429Y-118228572D02*
X73371429Y-118228572D01*
X73371429Y-118000000D01*
X73400000Y-117942858D01*
X73428571Y-117914286D01*
X73485714Y-117885715D01*
X73571429Y-117885715D01*
X73628571Y-117914286D01*
X73657143Y-117942858D01*
X73685714Y-118000000D01*
X73685714Y-118228572D01*
X73971429Y-117314286D02*
X73971429Y-117657143D01*
X73971429Y-117485715D02*
X73371429Y-117485715D01*
X73457143Y-117542858D01*
X73514286Y-117600000D01*
X73542857Y-117657143D01*
X73371429Y-116771429D02*
X73371429Y-117057143D01*
X73657143Y-117085714D01*
X73628571Y-117057143D01*
X73600000Y-117000000D01*
X73600000Y-116857143D01*
X73628571Y-116800000D01*
X73657143Y-116771429D01*
X73714286Y-116742857D01*
X73857143Y-116742857D01*
X73914286Y-116771429D01*
X73942857Y-116800000D01*
X73971429Y-116857143D01*
X73971429Y-117000000D01*
X73942857Y-117057143D01*
X73914286Y-117085714D01*
X77271429Y-117957143D02*
X77671429Y-117957143D01*
X77042857Y-118100000D02*
X77471429Y-118242857D01*
X77471429Y-117871429D01*
X77071429Y-117700000D02*
X77071429Y-117300000D01*
X77671429Y-117557143D01*
X77071429Y-116957142D02*
X77071429Y-116899999D01*
X77100000Y-116842856D01*
X77128571Y-116814285D01*
X77185714Y-116785714D01*
X77300000Y-116757142D01*
X77442857Y-116757142D01*
X77557143Y-116785714D01*
X77614286Y-116814285D01*
X77642857Y-116842856D01*
X77671429Y-116899999D01*
X77671429Y-116957142D01*
X77642857Y-117014285D01*
X77614286Y-117042856D01*
X77557143Y-117071428D01*
X77442857Y-117099999D01*
X77300000Y-117099999D01*
X77185714Y-117071428D01*
X77128571Y-117042856D01*
X77100000Y-117014285D01*
X77071429Y-116957142D01*
X53952381Y-114261905D02*
X54761905Y-114261905D01*
X54857143Y-114214286D01*
X54904762Y-114166667D01*
X54952381Y-114071429D01*
X54952381Y-113880952D01*
X54904762Y-113785714D01*
X54857143Y-113738095D01*
X54761905Y-113690476D01*
X53952381Y-113690476D01*
X53952381Y-113309524D02*
X53952381Y-112690476D01*
X54333333Y-113023810D01*
X54333333Y-112880952D01*
X54380952Y-112785714D01*
X54428571Y-112738095D01*
X54523810Y-112690476D01*
X54761905Y-112690476D01*
X54857143Y-112738095D01*
X54904762Y-112785714D01*
X54952381Y-112880952D01*
X54952381Y-113166667D01*
X54904762Y-113261905D01*
X54857143Y-113309524D01*
X95271429Y-152857143D02*
X95757143Y-152857143D01*
X95814286Y-152828571D01*
X95842857Y-152800000D01*
X95871429Y-152742857D01*
X95871429Y-152628571D01*
X95842857Y-152571429D01*
X95814286Y-152542857D01*
X95757143Y-152514286D01*
X95271429Y-152514286D01*
X95471429Y-151971429D02*
X95871429Y-151971429D01*
X95242857Y-152114286D02*
X95671429Y-152257143D01*
X95671429Y-151885715D01*
X91771429Y-114942857D02*
X91171429Y-114942857D01*
X91171429Y-114800000D01*
X91200000Y-114714285D01*
X91257143Y-114657143D01*
X91314286Y-114628571D01*
X91428571Y-114600000D01*
X91514286Y-114600000D01*
X91628571Y-114628571D01*
X91685714Y-114657143D01*
X91742857Y-114714285D01*
X91771429Y-114800000D01*
X91771429Y-114942857D01*
X91771429Y-114028571D02*
X91771429Y-114371428D01*
X91771429Y-114200000D02*
X91171429Y-114200000D01*
X91257143Y-114257143D01*
X91314286Y-114314285D01*
X91342857Y-114371428D01*
X96271429Y-114942857D02*
X95671429Y-114942857D01*
X95671429Y-114800000D01*
X95700000Y-114714285D01*
X95757143Y-114657143D01*
X95814286Y-114628571D01*
X95928571Y-114600000D01*
X96014286Y-114600000D01*
X96128571Y-114628571D01*
X96185714Y-114657143D01*
X96242857Y-114714285D01*
X96271429Y-114800000D01*
X96271429Y-114942857D01*
X95728571Y-114371428D02*
X95700000Y-114342857D01*
X95671429Y-114285714D01*
X95671429Y-114142857D01*
X95700000Y-114085714D01*
X95728571Y-114057143D01*
X95785714Y-114028571D01*
X95842857Y-114028571D01*
X95928571Y-114057143D01*
X96271429Y-114400000D01*
X96271429Y-114028571D01*
X78371429Y-136342857D02*
X77771429Y-136342857D01*
X77771429Y-136200000D01*
X77800000Y-136114285D01*
X77857143Y-136057143D01*
X77914286Y-136028571D01*
X78028571Y-136000000D01*
X78114286Y-136000000D01*
X78228571Y-136028571D01*
X78285714Y-136057143D01*
X78342857Y-136114285D01*
X78371429Y-136200000D01*
X78371429Y-136342857D01*
X77971429Y-135485714D02*
X78371429Y-135485714D01*
X77742857Y-135628571D02*
X78171429Y-135771428D01*
X78171429Y-135400000D01*
X78371429Y-133442857D02*
X77771429Y-133442857D01*
X77771429Y-133300000D01*
X77800000Y-133214285D01*
X77857143Y-133157143D01*
X77914286Y-133128571D01*
X78028571Y-133100000D01*
X78114286Y-133100000D01*
X78228571Y-133128571D01*
X78285714Y-133157143D01*
X78342857Y-133214285D01*
X78371429Y-133300000D01*
X78371429Y-133442857D01*
X77771429Y-132557143D02*
X77771429Y-132842857D01*
X78057143Y-132871428D01*
X78028571Y-132842857D01*
X78000000Y-132785714D01*
X78000000Y-132642857D01*
X78028571Y-132585714D01*
X78057143Y-132557143D01*
X78114286Y-132528571D01*
X78257143Y-132528571D01*
X78314286Y-132557143D01*
X78342857Y-132585714D01*
X78371429Y-132642857D01*
X78371429Y-132785714D01*
X78342857Y-132842857D01*
X78314286Y-132871428D01*
X73971429Y-109142857D02*
X73371429Y-109142857D01*
X73371429Y-109000000D01*
X73400000Y-108914285D01*
X73457143Y-108857143D01*
X73514286Y-108828571D01*
X73628571Y-108800000D01*
X73714286Y-108800000D01*
X73828571Y-108828571D01*
X73885714Y-108857143D01*
X73942857Y-108914285D01*
X73971429Y-109000000D01*
X73971429Y-109142857D01*
X73371429Y-108285714D02*
X73371429Y-108400000D01*
X73400000Y-108457143D01*
X73428571Y-108485714D01*
X73514286Y-108542857D01*
X73628571Y-108571428D01*
X73857143Y-108571428D01*
X73914286Y-108542857D01*
X73942857Y-108514285D01*
X73971429Y-108457143D01*
X73971429Y-108342857D01*
X73942857Y-108285714D01*
X73914286Y-108257143D01*
X73857143Y-108228571D01*
X73714286Y-108228571D01*
X73657143Y-108257143D01*
X73628571Y-108285714D01*
X73600000Y-108342857D01*
X73600000Y-108457143D01*
X73628571Y-108514285D01*
X73657143Y-108542857D01*
X73714286Y-108571428D01*
X47657143Y-127500000D02*
X47657143Y-127700000D01*
X47971429Y-127700000D02*
X47371429Y-127700000D01*
X47371429Y-127414286D01*
X47657143Y-126985714D02*
X47685714Y-126900000D01*
X47714286Y-126871428D01*
X47771429Y-126842857D01*
X47857143Y-126842857D01*
X47914286Y-126871428D01*
X47942857Y-126900000D01*
X47971429Y-126957142D01*
X47971429Y-127185714D01*
X47371429Y-127185714D01*
X47371429Y-126985714D01*
X47400000Y-126928571D01*
X47428571Y-126900000D01*
X47485714Y-126871428D01*
X47542857Y-126871428D01*
X47600000Y-126900000D01*
X47628571Y-126928571D01*
X47657143Y-126985714D01*
X47657143Y-127185714D01*
X47971429Y-126271428D02*
X47971429Y-126614285D01*
X47971429Y-126442857D02*
X47371429Y-126442857D01*
X47457143Y-126500000D01*
X47514286Y-126557142D01*
X47542857Y-126614285D01*
X51128571Y-127742857D02*
X51100000Y-127714286D01*
X51071429Y-127657143D01*
X51071429Y-127514286D01*
X51100000Y-127457143D01*
X51128571Y-127428572D01*
X51185714Y-127400000D01*
X51242857Y-127400000D01*
X51328571Y-127428572D01*
X51671429Y-127771429D01*
X51671429Y-127400000D01*
X51128571Y-127171428D02*
X51100000Y-127142857D01*
X51071429Y-127085714D01*
X51071429Y-126942857D01*
X51100000Y-126885714D01*
X51128571Y-126857143D01*
X51185714Y-126828571D01*
X51242857Y-126828571D01*
X51328571Y-126857143D01*
X51671429Y-127200000D01*
X51671429Y-126828571D01*
X51071429Y-126457142D02*
X51071429Y-126399999D01*
X51100000Y-126342856D01*
X51128571Y-126314285D01*
X51185714Y-126285714D01*
X51300000Y-126257142D01*
X51442857Y-126257142D01*
X51557143Y-126285714D01*
X51614286Y-126314285D01*
X51642857Y-126342856D01*
X51671429Y-126399999D01*
X51671429Y-126457142D01*
X51642857Y-126514285D01*
X51614286Y-126542856D01*
X51557143Y-126571428D01*
X51442857Y-126599999D01*
X51300000Y-126599999D01*
X51185714Y-126571428D01*
X51128571Y-126542856D01*
X51100000Y-126514285D01*
X51071429Y-126457142D01*
X81157143Y-129000000D02*
X81157143Y-129200000D01*
X81471429Y-129200000D02*
X80871429Y-129200000D01*
X80871429Y-128914286D01*
X81157143Y-128485714D02*
X81185714Y-128400000D01*
X81214286Y-128371428D01*
X81271429Y-128342857D01*
X81357143Y-128342857D01*
X81414286Y-128371428D01*
X81442857Y-128400000D01*
X81471429Y-128457142D01*
X81471429Y-128685714D01*
X80871429Y-128685714D01*
X80871429Y-128485714D01*
X80900000Y-128428571D01*
X80928571Y-128400000D01*
X80985714Y-128371428D01*
X81042857Y-128371428D01*
X81100000Y-128400000D01*
X81128571Y-128428571D01*
X81157143Y-128485714D01*
X81157143Y-128685714D01*
X80928571Y-128114285D02*
X80900000Y-128085714D01*
X80871429Y-128028571D01*
X80871429Y-127885714D01*
X80900000Y-127828571D01*
X80928571Y-127800000D01*
X80985714Y-127771428D01*
X81042857Y-127771428D01*
X81128571Y-127800000D01*
X81471429Y-128142857D01*
X81471429Y-127771428D01*
X84528571Y-129242857D02*
X84500000Y-129214286D01*
X84471429Y-129157143D01*
X84471429Y-129014286D01*
X84500000Y-128957143D01*
X84528571Y-128928572D01*
X84585714Y-128900000D01*
X84642857Y-128900000D01*
X84728571Y-128928572D01*
X85071429Y-129271429D01*
X85071429Y-128900000D01*
X84528571Y-128671428D02*
X84500000Y-128642857D01*
X84471429Y-128585714D01*
X84471429Y-128442857D01*
X84500000Y-128385714D01*
X84528571Y-128357143D01*
X84585714Y-128328571D01*
X84642857Y-128328571D01*
X84728571Y-128357143D01*
X85071429Y-128700000D01*
X85071429Y-128328571D01*
X84471429Y-127957142D02*
X84471429Y-127899999D01*
X84500000Y-127842856D01*
X84528571Y-127814285D01*
X84585714Y-127785714D01*
X84700000Y-127757142D01*
X84842857Y-127757142D01*
X84957143Y-127785714D01*
X85014286Y-127814285D01*
X85042857Y-127842856D01*
X85071429Y-127899999D01*
X85071429Y-127957142D01*
X85042857Y-128014285D01*
X85014286Y-128042856D01*
X84957143Y-128071428D01*
X84842857Y-128099999D01*
X84700000Y-128099999D01*
X84585714Y-128071428D01*
X84528571Y-128042856D01*
X84500000Y-128014285D01*
X84471429Y-127957142D01*
X59566667Y-128452381D02*
X59566667Y-129166667D01*
X59519047Y-129309524D01*
X59423809Y-129404762D01*
X59280952Y-129452381D01*
X59185714Y-129452381D01*
X60566667Y-129452381D02*
X59995238Y-129452381D01*
X60280952Y-129452381D02*
X60280952Y-128452381D01*
X60185714Y-128595238D01*
X60090476Y-128690476D01*
X59995238Y-128738095D01*
X59642857Y-150452381D02*
X59642857Y-149452381D01*
X59880952Y-149452381D01*
X60023810Y-149500000D01*
X60119048Y-149595238D01*
X60166667Y-149690476D01*
X60214286Y-149880952D01*
X60214286Y-150023810D01*
X60166667Y-150214286D01*
X60119048Y-150309524D01*
X60023810Y-150404762D01*
X59880952Y-150452381D01*
X59642857Y-150452381D01*
X60642857Y-150452381D02*
X60642857Y-149452381D01*
X61071428Y-150166667D02*
X61547619Y-150166667D01*
X60976190Y-150452381D02*
X61309523Y-149452381D01*
X61642857Y-150452381D01*
X62500000Y-149500000D02*
X62404762Y-149452381D01*
X62261905Y-149452381D01*
X62119047Y-149500000D01*
X62023809Y-149595238D01*
X61976190Y-149690476D01*
X61928571Y-149880952D01*
X61928571Y-150023810D01*
X61976190Y-150214286D01*
X62023809Y-150309524D01*
X62119047Y-150404762D01*
X62261905Y-150452381D01*
X62357143Y-150452381D01*
X62500000Y-150404762D01*
X62547619Y-150357143D01*
X62547619Y-150023810D01*
X62357143Y-150023810D01*
X63738095Y-150452381D02*
X63738095Y-149452381D01*
X64119048Y-149452381D01*
X64214286Y-149500000D01*
X64261905Y-149547619D01*
X64309524Y-149642857D01*
X64309524Y-149785714D01*
X64261905Y-149880952D01*
X64214286Y-149928571D01*
X64119048Y-149976190D01*
X63738095Y-149976190D01*
X64880952Y-150452381D02*
X64785714Y-150404762D01*
X64738095Y-150357143D01*
X64690476Y-150261905D01*
X64690476Y-149976190D01*
X64738095Y-149880952D01*
X64785714Y-149833333D01*
X64880952Y-149785714D01*
X65023810Y-149785714D01*
X65119048Y-149833333D01*
X65166667Y-149880952D01*
X65214286Y-149976190D01*
X65214286Y-150261905D01*
X65166667Y-150357143D01*
X65119048Y-150404762D01*
X65023810Y-150452381D01*
X64880952Y-150452381D01*
X65642857Y-150452381D02*
X65642857Y-149785714D01*
X65642857Y-149976190D02*
X65690476Y-149880952D01*
X65738095Y-149833333D01*
X65833333Y-149785714D01*
X65928572Y-149785714D01*
X66119048Y-149785714D02*
X66500000Y-149785714D01*
X66261905Y-149452381D02*
X66261905Y-150309524D01*
X66309524Y-150404762D01*
X66404762Y-150452381D01*
X66500000Y-150452381D01*
X58471429Y-144600000D02*
X58185714Y-144800000D01*
X58471429Y-144942857D02*
X57871429Y-144942857D01*
X57871429Y-144714285D01*
X57900000Y-144657143D01*
X57928571Y-144628571D01*
X57985714Y-144600000D01*
X58071429Y-144600000D01*
X58128571Y-144628571D01*
X58157143Y-144657143D01*
X58185714Y-144714285D01*
X58185714Y-144942857D01*
X58471429Y-144028571D02*
X58471429Y-144371428D01*
X58471429Y-144200000D02*
X57871429Y-144200000D01*
X57957143Y-144257143D01*
X58014286Y-144314285D01*
X58042857Y-144371428D01*
X61628571Y-144957143D02*
X61600000Y-144928572D01*
X61571429Y-144871429D01*
X61571429Y-144728572D01*
X61600000Y-144671429D01*
X61628571Y-144642858D01*
X61685714Y-144614286D01*
X61742857Y-144614286D01*
X61828571Y-144642858D01*
X62171429Y-144985715D01*
X62171429Y-144614286D01*
X61628571Y-144385714D02*
X61600000Y-144357143D01*
X61571429Y-144300000D01*
X61571429Y-144157143D01*
X61600000Y-144100000D01*
X61628571Y-144071429D01*
X61685714Y-144042857D01*
X61742857Y-144042857D01*
X61828571Y-144071429D01*
X62171429Y-144414286D01*
X62171429Y-144042857D01*
X58471429Y-132100000D02*
X58185714Y-132300000D01*
X58471429Y-132442857D02*
X57871429Y-132442857D01*
X57871429Y-132214285D01*
X57900000Y-132157143D01*
X57928571Y-132128571D01*
X57985714Y-132100000D01*
X58071429Y-132100000D01*
X58128571Y-132128571D01*
X58157143Y-132157143D01*
X58185714Y-132214285D01*
X58185714Y-132442857D01*
X57928571Y-131871428D02*
X57900000Y-131842857D01*
X57871429Y-131785714D01*
X57871429Y-131642857D01*
X57900000Y-131585714D01*
X57928571Y-131557143D01*
X57985714Y-131528571D01*
X58042857Y-131528571D01*
X58128571Y-131557143D01*
X58471429Y-131900000D01*
X58471429Y-131528571D01*
X61628571Y-132457143D02*
X61600000Y-132428572D01*
X61571429Y-132371429D01*
X61571429Y-132228572D01*
X61600000Y-132171429D01*
X61628571Y-132142858D01*
X61685714Y-132114286D01*
X61742857Y-132114286D01*
X61828571Y-132142858D01*
X62171429Y-132485715D01*
X62171429Y-132114286D01*
X61628571Y-131885714D02*
X61600000Y-131857143D01*
X61571429Y-131800000D01*
X61571429Y-131657143D01*
X61600000Y-131600000D01*
X61628571Y-131571429D01*
X61685714Y-131542857D01*
X61742857Y-131542857D01*
X61828571Y-131571429D01*
X62171429Y-131914286D01*
X62171429Y-131542857D01*
X58471429Y-134600000D02*
X58185714Y-134800000D01*
X58471429Y-134942857D02*
X57871429Y-134942857D01*
X57871429Y-134714285D01*
X57900000Y-134657143D01*
X57928571Y-134628571D01*
X57985714Y-134600000D01*
X58071429Y-134600000D01*
X58128571Y-134628571D01*
X58157143Y-134657143D01*
X58185714Y-134714285D01*
X58185714Y-134942857D01*
X57871429Y-134400000D02*
X57871429Y-134028571D01*
X58100000Y-134228571D01*
X58100000Y-134142857D01*
X58128571Y-134085714D01*
X58157143Y-134057143D01*
X58214286Y-134028571D01*
X58357143Y-134028571D01*
X58414286Y-134057143D01*
X58442857Y-134085714D01*
X58471429Y-134142857D01*
X58471429Y-134314285D01*
X58442857Y-134371428D01*
X58414286Y-134400000D01*
X61628571Y-134957143D02*
X61600000Y-134928572D01*
X61571429Y-134871429D01*
X61571429Y-134728572D01*
X61600000Y-134671429D01*
X61628571Y-134642858D01*
X61685714Y-134614286D01*
X61742857Y-134614286D01*
X61828571Y-134642858D01*
X62171429Y-134985715D01*
X62171429Y-134614286D01*
X61628571Y-134385714D02*
X61600000Y-134357143D01*
X61571429Y-134300000D01*
X61571429Y-134157143D01*
X61600000Y-134100000D01*
X61628571Y-134071429D01*
X61685714Y-134042857D01*
X61742857Y-134042857D01*
X61828571Y-134071429D01*
X62171429Y-134414286D01*
X62171429Y-134042857D01*
X86071429Y-128600000D02*
X85785714Y-128800000D01*
X86071429Y-128942857D02*
X85471429Y-128942857D01*
X85471429Y-128714285D01*
X85500000Y-128657143D01*
X85528571Y-128628571D01*
X85585714Y-128600000D01*
X85671429Y-128600000D01*
X85728571Y-128628571D01*
X85757143Y-128657143D01*
X85785714Y-128714285D01*
X85785714Y-128942857D01*
X85671429Y-128085714D02*
X86071429Y-128085714D01*
X85442857Y-128228571D02*
X85871429Y-128371428D01*
X85871429Y-128000000D01*
X89171429Y-128957143D02*
X89571429Y-128957143D01*
X88942857Y-129100000D02*
X89371429Y-129242857D01*
X89371429Y-128871429D01*
X88971429Y-128700000D02*
X88971429Y-128300000D01*
X89571429Y-128557143D01*
X88971429Y-127957142D02*
X88971429Y-127899999D01*
X89000000Y-127842856D01*
X89028571Y-127814285D01*
X89085714Y-127785714D01*
X89200000Y-127757142D01*
X89342857Y-127757142D01*
X89457143Y-127785714D01*
X89514286Y-127814285D01*
X89542857Y-127842856D01*
X89571429Y-127899999D01*
X89571429Y-127957142D01*
X89542857Y-128014285D01*
X89514286Y-128042856D01*
X89457143Y-128071428D01*
X89342857Y-128099999D01*
X89200000Y-128099999D01*
X89085714Y-128071428D01*
X89028571Y-128042856D01*
X89000000Y-128014285D01*
X88971429Y-127957142D01*
X86071429Y-126100000D02*
X85785714Y-126300000D01*
X86071429Y-126442857D02*
X85471429Y-126442857D01*
X85471429Y-126214285D01*
X85500000Y-126157143D01*
X85528571Y-126128571D01*
X85585714Y-126100000D01*
X85671429Y-126100000D01*
X85728571Y-126128571D01*
X85757143Y-126157143D01*
X85785714Y-126214285D01*
X85785714Y-126442857D01*
X85471429Y-125557143D02*
X85471429Y-125842857D01*
X85757143Y-125871428D01*
X85728571Y-125842857D01*
X85700000Y-125785714D01*
X85700000Y-125642857D01*
X85728571Y-125585714D01*
X85757143Y-125557143D01*
X85814286Y-125528571D01*
X85957143Y-125528571D01*
X86014286Y-125557143D01*
X86042857Y-125585714D01*
X86071429Y-125642857D01*
X86071429Y-125785714D01*
X86042857Y-125842857D01*
X86014286Y-125871428D01*
X89171429Y-126457143D02*
X89571429Y-126457143D01*
X88942857Y-126600000D02*
X89371429Y-126742857D01*
X89371429Y-126371429D01*
X88971429Y-126200000D02*
X88971429Y-125800000D01*
X89571429Y-126057143D01*
X88971429Y-125457142D02*
X88971429Y-125399999D01*
X89000000Y-125342856D01*
X89028571Y-125314285D01*
X89085714Y-125285714D01*
X89200000Y-125257142D01*
X89342857Y-125257142D01*
X89457143Y-125285714D01*
X89514286Y-125314285D01*
X89542857Y-125342856D01*
X89571429Y-125399999D01*
X89571429Y-125457142D01*
X89542857Y-125514285D01*
X89514286Y-125542856D01*
X89457143Y-125571428D01*
X89342857Y-125599999D01*
X89200000Y-125599999D01*
X89085714Y-125571428D01*
X89028571Y-125542856D01*
X89000000Y-125514285D01*
X88971429Y-125457142D01*
X74952381Y-132261905D02*
X75761905Y-132261905D01*
X75857143Y-132214286D01*
X75904762Y-132166667D01*
X75952381Y-132071429D01*
X75952381Y-131880952D01*
X75904762Y-131785714D01*
X75857143Y-131738095D01*
X75761905Y-131690476D01*
X74952381Y-131690476D01*
X75952381Y-130690476D02*
X75952381Y-131261905D01*
X75952381Y-130976191D02*
X74952381Y-130976191D01*
X75095238Y-131071429D01*
X75190476Y-131166667D01*
X75238095Y-131261905D01*
X90452381Y-129761905D02*
X91261905Y-129761905D01*
X91357143Y-129714286D01*
X91404762Y-129666667D01*
X91452381Y-129571429D01*
X91452381Y-129380952D01*
X91404762Y-129285714D01*
X91357143Y-129238095D01*
X91261905Y-129190476D01*
X90452381Y-129190476D01*
X90547619Y-128761905D02*
X90500000Y-128714286D01*
X90452381Y-128619048D01*
X90452381Y-128380952D01*
X90500000Y-128285714D01*
X90547619Y-128238095D01*
X90642857Y-128190476D01*
X90738095Y-128190476D01*
X90880952Y-128238095D01*
X91452381Y-128809524D01*
X91452381Y-128190476D01*
X46738095Y-135452381D02*
X46738095Y-136261905D01*
X46785714Y-136357143D01*
X46833333Y-136404762D01*
X46928571Y-136452381D01*
X47119048Y-136452381D01*
X47214286Y-136404762D01*
X47261905Y-136357143D01*
X47309524Y-136261905D01*
X47309524Y-135452381D01*
X48261905Y-135452381D02*
X47785714Y-135452381D01*
X47738095Y-135928571D01*
X47785714Y-135880952D01*
X47880952Y-135833333D01*
X48119048Y-135833333D01*
X48214286Y-135880952D01*
X48261905Y-135928571D01*
X48309524Y-136023810D01*
X48309524Y-136261905D01*
X48261905Y-136357143D01*
X48214286Y-136404762D01*
X48119048Y-136452381D01*
X47880952Y-136452381D01*
X47785714Y-136404762D01*
X47738095Y-136357143D01*
X93052381Y-140661905D02*
X93861905Y-140661905D01*
X93957143Y-140614286D01*
X94004762Y-140566667D01*
X94052381Y-140471429D01*
X94052381Y-140280952D01*
X94004762Y-140185714D01*
X93957143Y-140138095D01*
X93861905Y-140090476D01*
X93052381Y-140090476D01*
X93052381Y-139185714D02*
X93052381Y-139376191D01*
X93100000Y-139471429D01*
X93147619Y-139519048D01*
X93290476Y-139614286D01*
X93480952Y-139661905D01*
X93861905Y-139661905D01*
X93957143Y-139614286D01*
X94004762Y-139566667D01*
X94052381Y-139471429D01*
X94052381Y-139280952D01*
X94004762Y-139185714D01*
X93957143Y-139138095D01*
X93861905Y-139090476D01*
X93623810Y-139090476D01*
X93528571Y-139138095D01*
X93480952Y-139185714D01*
X93433333Y-139280952D01*
X93433333Y-139471429D01*
X93480952Y-139566667D01*
X93528571Y-139614286D01*
X93623810Y-139661905D01*
X60714285Y-138471429D02*
X61114285Y-139071429D01*
X61114285Y-138471429D02*
X60714285Y-139071429D01*
X61657143Y-139071429D02*
X61314286Y-139071429D01*
X61485714Y-139071429D02*
X61485714Y-138471429D01*
X61428571Y-138557143D01*
X61371429Y-138614286D01*
X61314286Y-138642857D01*
X98742857Y-149300000D02*
X98771429Y-149214286D01*
X98771429Y-149071429D01*
X98742857Y-149014286D01*
X98714286Y-148985715D01*
X98657143Y-148957143D01*
X98600000Y-148957143D01*
X98542857Y-148985715D01*
X98514286Y-149014286D01*
X98485714Y-149071429D01*
X98457143Y-149185715D01*
X98428571Y-149242857D01*
X98400000Y-149271429D01*
X98342857Y-149300000D01*
X98285714Y-149300000D01*
X98228571Y-149271429D01*
X98200000Y-149242857D01*
X98171429Y-149185715D01*
X98171429Y-149042857D01*
X98200000Y-148957143D01*
X98171429Y-148757143D02*
X98771429Y-148614286D01*
X98342857Y-148500000D01*
X98771429Y-148385714D01*
X98171429Y-148242857D01*
X98771429Y-147700000D02*
X98771429Y-148042857D01*
X98771429Y-147871429D02*
X98171429Y-147871429D01*
X98257143Y-147928572D01*
X98314286Y-147985714D01*
X98342857Y-148042857D01*
X65914286Y-130635715D02*
X65942857Y-130664286D01*
X65971429Y-130750000D01*
X65971429Y-130807143D01*
X65942857Y-130892858D01*
X65885714Y-130950000D01*
X65828571Y-130978572D01*
X65714286Y-131007143D01*
X65628571Y-131007143D01*
X65514286Y-130978572D01*
X65457143Y-130950000D01*
X65400000Y-130892858D01*
X65371429Y-130807143D01*
X65371429Y-130750000D01*
X65400000Y-130664286D01*
X65428571Y-130635715D01*
X65971429Y-130064286D02*
X65971429Y-130407143D01*
X65971429Y-130235715D02*
X65371429Y-130235715D01*
X65457143Y-130292858D01*
X65514286Y-130350000D01*
X65542857Y-130407143D01*
X65371429Y-129864286D02*
X65371429Y-129492857D01*
X65600000Y-129692857D01*
X65600000Y-129607143D01*
X65628571Y-129550000D01*
X65657143Y-129521429D01*
X65714286Y-129492857D01*
X65857143Y-129492857D01*
X65914286Y-129521429D01*
X65942857Y-129550000D01*
X65971429Y-129607143D01*
X65971429Y-129778571D01*
X65942857Y-129835714D01*
X65914286Y-129864286D01*
X69571429Y-130964286D02*
X69571429Y-131307143D01*
X69571429Y-131135715D02*
X68971429Y-131135715D01*
X69057143Y-131192858D01*
X69114286Y-131250000D01*
X69142857Y-131307143D01*
X68971429Y-130592857D02*
X68971429Y-130535714D01*
X69000000Y-130478571D01*
X69028571Y-130450000D01*
X69085714Y-130421429D01*
X69200000Y-130392857D01*
X69342857Y-130392857D01*
X69457143Y-130421429D01*
X69514286Y-130450000D01*
X69542857Y-130478571D01*
X69571429Y-130535714D01*
X69571429Y-130592857D01*
X69542857Y-130650000D01*
X69514286Y-130678571D01*
X69457143Y-130707143D01*
X69342857Y-130735714D01*
X69200000Y-130735714D01*
X69085714Y-130707143D01*
X69028571Y-130678571D01*
X69000000Y-130650000D01*
X68971429Y-130592857D01*
X68971429Y-130021428D02*
X68971429Y-129964285D01*
X69000000Y-129907142D01*
X69028571Y-129878571D01*
X69085714Y-129850000D01*
X69200000Y-129821428D01*
X69342857Y-129821428D01*
X69457143Y-129850000D01*
X69514286Y-129878571D01*
X69542857Y-129907142D01*
X69571429Y-129964285D01*
X69571429Y-130021428D01*
X69542857Y-130078571D01*
X69514286Y-130107142D01*
X69457143Y-130135714D01*
X69342857Y-130164285D01*
X69200000Y-130164285D01*
X69085714Y-130135714D01*
X69028571Y-130107142D01*
X69000000Y-130078571D01*
X68971429Y-130021428D01*
X69571429Y-129564285D02*
X68971429Y-129564285D01*
X69571429Y-129221428D01*
X68971429Y-129221428D01*
X85914286Y-123885715D02*
X85942857Y-123914286D01*
X85971429Y-124000000D01*
X85971429Y-124057143D01*
X85942857Y-124142858D01*
X85885714Y-124200000D01*
X85828571Y-124228572D01*
X85714286Y-124257143D01*
X85628571Y-124257143D01*
X85514286Y-124228572D01*
X85457143Y-124200000D01*
X85400000Y-124142858D01*
X85371429Y-124057143D01*
X85371429Y-124000000D01*
X85400000Y-123914286D01*
X85428571Y-123885715D01*
X85971429Y-123314286D02*
X85971429Y-123657143D01*
X85971429Y-123485715D02*
X85371429Y-123485715D01*
X85457143Y-123542858D01*
X85514286Y-123600000D01*
X85542857Y-123657143D01*
X85571429Y-122800000D02*
X85971429Y-122800000D01*
X85342857Y-122942857D02*
X85771429Y-123085714D01*
X85771429Y-122714286D01*
X89571429Y-124214286D02*
X89571429Y-124557143D01*
X89571429Y-124385715D02*
X88971429Y-124385715D01*
X89057143Y-124442858D01*
X89114286Y-124500000D01*
X89142857Y-124557143D01*
X88971429Y-123842857D02*
X88971429Y-123785714D01*
X89000000Y-123728571D01*
X89028571Y-123700000D01*
X89085714Y-123671429D01*
X89200000Y-123642857D01*
X89342857Y-123642857D01*
X89457143Y-123671429D01*
X89514286Y-123700000D01*
X89542857Y-123728571D01*
X89571429Y-123785714D01*
X89571429Y-123842857D01*
X89542857Y-123900000D01*
X89514286Y-123928571D01*
X89457143Y-123957143D01*
X89342857Y-123985714D01*
X89200000Y-123985714D01*
X89085714Y-123957143D01*
X89028571Y-123928571D01*
X89000000Y-123900000D01*
X88971429Y-123842857D01*
X88971429Y-123271428D02*
X88971429Y-123214285D01*
X89000000Y-123157142D01*
X89028571Y-123128571D01*
X89085714Y-123100000D01*
X89200000Y-123071428D01*
X89342857Y-123071428D01*
X89457143Y-123100000D01*
X89514286Y-123128571D01*
X89542857Y-123157142D01*
X89571429Y-123214285D01*
X89571429Y-123271428D01*
X89542857Y-123328571D01*
X89514286Y-123357142D01*
X89457143Y-123385714D01*
X89342857Y-123414285D01*
X89200000Y-123414285D01*
X89085714Y-123385714D01*
X89028571Y-123357142D01*
X89000000Y-123328571D01*
X88971429Y-123271428D01*
X89571429Y-122814285D02*
X88971429Y-122814285D01*
X89571429Y-122471428D01*
X88971429Y-122471428D01*
X49971429Y-151885715D02*
X49685714Y-152085715D01*
X49971429Y-152228572D02*
X49371429Y-152228572D01*
X49371429Y-152000000D01*
X49400000Y-151942858D01*
X49428571Y-151914286D01*
X49485714Y-151885715D01*
X49571429Y-151885715D01*
X49628571Y-151914286D01*
X49657143Y-151942858D01*
X49685714Y-152000000D01*
X49685714Y-152228572D01*
X49971429Y-151314286D02*
X49971429Y-151657143D01*
X49971429Y-151485715D02*
X49371429Y-151485715D01*
X49457143Y-151542858D01*
X49514286Y-151600000D01*
X49542857Y-151657143D01*
X49371429Y-150800000D02*
X49371429Y-150914286D01*
X49400000Y-150971429D01*
X49428571Y-151000000D01*
X49514286Y-151057143D01*
X49628571Y-151085714D01*
X49857143Y-151085714D01*
X49914286Y-151057143D01*
X49942857Y-151028571D01*
X49971429Y-150971429D01*
X49971429Y-150857143D01*
X49942857Y-150800000D01*
X49914286Y-150771429D01*
X49857143Y-150742857D01*
X49714286Y-150742857D01*
X49657143Y-150771429D01*
X49628571Y-150800000D01*
X49600000Y-150857143D01*
X49600000Y-150971429D01*
X49628571Y-151028571D01*
X49657143Y-151057143D01*
X49714286Y-151085714D01*
X53071429Y-151528571D02*
X53071429Y-151471428D01*
X53100000Y-151414285D01*
X53128571Y-151385714D01*
X53185714Y-151357143D01*
X53300000Y-151328571D01*
X53442857Y-151328571D01*
X53557143Y-151357143D01*
X53614286Y-151385714D01*
X53642857Y-151414285D01*
X53671429Y-151471428D01*
X53671429Y-151528571D01*
X53642857Y-151585714D01*
X53614286Y-151614285D01*
X53557143Y-151642857D01*
X53442857Y-151671428D01*
X53300000Y-151671428D01*
X53185714Y-151642857D01*
X53128571Y-151614285D01*
X53100000Y-151585714D01*
X53071429Y-151528571D01*
X90971429Y-153885715D02*
X90685714Y-154085715D01*
X90971429Y-154228572D02*
X90371429Y-154228572D01*
X90371429Y-154000000D01*
X90400000Y-153942858D01*
X90428571Y-153914286D01*
X90485714Y-153885715D01*
X90571429Y-153885715D01*
X90628571Y-153914286D01*
X90657143Y-153942858D01*
X90685714Y-154000000D01*
X90685714Y-154228572D01*
X90971429Y-153314286D02*
X90971429Y-153657143D01*
X90971429Y-153485715D02*
X90371429Y-153485715D01*
X90457143Y-153542858D01*
X90514286Y-153600000D01*
X90542857Y-153657143D01*
X90371429Y-153114286D02*
X90371429Y-152714286D01*
X90971429Y-152971429D01*
X93971429Y-153528571D02*
X93971429Y-153471428D01*
X94000000Y-153414285D01*
X94028571Y-153385714D01*
X94085714Y-153357143D01*
X94200000Y-153328571D01*
X94342857Y-153328571D01*
X94457143Y-153357143D01*
X94514286Y-153385714D01*
X94542857Y-153414285D01*
X94571429Y-153471428D01*
X94571429Y-153528571D01*
X94542857Y-153585714D01*
X94514286Y-153614285D01*
X94457143Y-153642857D01*
X94342857Y-153671428D01*
X94200000Y-153671428D01*
X94085714Y-153642857D01*
X94028571Y-153614285D01*
X94000000Y-153585714D01*
X93971429Y-153528571D01*
X49971429Y-149385715D02*
X49685714Y-149585715D01*
X49971429Y-149728572D02*
X49371429Y-149728572D01*
X49371429Y-149500000D01*
X49400000Y-149442858D01*
X49428571Y-149414286D01*
X49485714Y-149385715D01*
X49571429Y-149385715D01*
X49628571Y-149414286D01*
X49657143Y-149442858D01*
X49685714Y-149500000D01*
X49685714Y-149728572D01*
X49971429Y-148814286D02*
X49971429Y-149157143D01*
X49971429Y-148985715D02*
X49371429Y-148985715D01*
X49457143Y-149042858D01*
X49514286Y-149100000D01*
X49542857Y-149157143D01*
X49628571Y-148471429D02*
X49600000Y-148528571D01*
X49571429Y-148557143D01*
X49514286Y-148585714D01*
X49485714Y-148585714D01*
X49428571Y-148557143D01*
X49400000Y-148528571D01*
X49371429Y-148471429D01*
X49371429Y-148357143D01*
X49400000Y-148300000D01*
X49428571Y-148271429D01*
X49485714Y-148242857D01*
X49514286Y-148242857D01*
X49571429Y-148271429D01*
X49600000Y-148300000D01*
X49628571Y-148357143D01*
X49628571Y-148471429D01*
X49657143Y-148528571D01*
X49685714Y-148557143D01*
X49742857Y-148585714D01*
X49857143Y-148585714D01*
X49914286Y-148557143D01*
X49942857Y-148528571D01*
X49971429Y-148471429D01*
X49971429Y-148357143D01*
X49942857Y-148300000D01*
X49914286Y-148271429D01*
X49857143Y-148242857D01*
X49742857Y-148242857D01*
X49685714Y-148271429D01*
X49657143Y-148300000D01*
X49628571Y-148357143D01*
X52971429Y-149028571D02*
X52971429Y-148971428D01*
X53000000Y-148914285D01*
X53028571Y-148885714D01*
X53085714Y-148857143D01*
X53200000Y-148828571D01*
X53342857Y-148828571D01*
X53457143Y-148857143D01*
X53514286Y-148885714D01*
X53542857Y-148914285D01*
X53571429Y-148971428D01*
X53571429Y-149028571D01*
X53542857Y-149085714D01*
X53514286Y-149114285D01*
X53457143Y-149142857D01*
X53342857Y-149171428D01*
X53200000Y-149171428D01*
X53085714Y-149142857D01*
X53028571Y-149114285D01*
X53000000Y-149085714D01*
X52971429Y-149028571D01*
X90971429Y-151885715D02*
X90685714Y-152085715D01*
X90971429Y-152228572D02*
X90371429Y-152228572D01*
X90371429Y-152000000D01*
X90400000Y-151942858D01*
X90428571Y-151914286D01*
X90485714Y-151885715D01*
X90571429Y-151885715D01*
X90628571Y-151914286D01*
X90657143Y-151942858D01*
X90685714Y-152000000D01*
X90685714Y-152228572D01*
X90971429Y-151314286D02*
X90971429Y-151657143D01*
X90971429Y-151485715D02*
X90371429Y-151485715D01*
X90457143Y-151542858D01*
X90514286Y-151600000D01*
X90542857Y-151657143D01*
X90971429Y-151028571D02*
X90971429Y-150914286D01*
X90942857Y-150857143D01*
X90914286Y-150828571D01*
X90828571Y-150771429D01*
X90714286Y-150742857D01*
X90485714Y-150742857D01*
X90428571Y-150771429D01*
X90400000Y-150800000D01*
X90371429Y-150857143D01*
X90371429Y-150971429D01*
X90400000Y-151028571D01*
X90428571Y-151057143D01*
X90485714Y-151085714D01*
X90628571Y-151085714D01*
X90685714Y-151057143D01*
X90714286Y-151028571D01*
X90742857Y-150971429D01*
X90742857Y-150857143D01*
X90714286Y-150800000D01*
X90685714Y-150771429D01*
X90628571Y-150742857D01*
X93971429Y-151528571D02*
X93971429Y-151471428D01*
X94000000Y-151414285D01*
X94028571Y-151385714D01*
X94085714Y-151357143D01*
X94200000Y-151328571D01*
X94342857Y-151328571D01*
X94457143Y-151357143D01*
X94514286Y-151385714D01*
X94542857Y-151414285D01*
X94571429Y-151471428D01*
X94571429Y-151528571D01*
X94542857Y-151585714D01*
X94514286Y-151614285D01*
X94457143Y-151642857D01*
X94342857Y-151671428D01*
X94200000Y-151671428D01*
X94085714Y-151642857D01*
X94028571Y-151614285D01*
X94000000Y-151585714D01*
X93971429Y-151528571D01*
X43200000Y-132242857D02*
X43285714Y-132271429D01*
X43428571Y-132271429D01*
X43485714Y-132242857D01*
X43514285Y-132214286D01*
X43542857Y-132157143D01*
X43542857Y-132100000D01*
X43514285Y-132042857D01*
X43485714Y-132014286D01*
X43428571Y-131985714D01*
X43314285Y-131957143D01*
X43257143Y-131928571D01*
X43228571Y-131900000D01*
X43200000Y-131842857D01*
X43200000Y-131785714D01*
X43228571Y-131728571D01*
X43257143Y-131700000D01*
X43314285Y-131671429D01*
X43457143Y-131671429D01*
X43542857Y-131700000D01*
X43742857Y-131671429D02*
X43885714Y-132271429D01*
X44000000Y-131842857D01*
X44114286Y-132271429D01*
X44257143Y-131671429D01*
X44457143Y-131728571D02*
X44485714Y-131700000D01*
X44542857Y-131671429D01*
X44685714Y-131671429D01*
X44742857Y-131700000D01*
X44771428Y-131728571D01*
X44800000Y-131785714D01*
X44800000Y-131842857D01*
X44771428Y-131928571D01*
X44428571Y-132271429D01*
X44800000Y-132271429D01*
X95200000Y-132342857D02*
X95285714Y-132371429D01*
X95428571Y-132371429D01*
X95485714Y-132342857D01*
X95514285Y-132314286D01*
X95542857Y-132257143D01*
X95542857Y-132200000D01*
X95514285Y-132142857D01*
X95485714Y-132114286D01*
X95428571Y-132085714D01*
X95314285Y-132057143D01*
X95257143Y-132028571D01*
X95228571Y-132000000D01*
X95200000Y-131942857D01*
X95200000Y-131885714D01*
X95228571Y-131828571D01*
X95257143Y-131800000D01*
X95314285Y-131771429D01*
X95457143Y-131771429D01*
X95542857Y-131800000D01*
X95742857Y-131771429D02*
X95885714Y-132371429D01*
X96000000Y-131942857D01*
X96114286Y-132371429D01*
X96257143Y-131771429D01*
X96428571Y-131771429D02*
X96800000Y-131771429D01*
X96600000Y-132000000D01*
X96685714Y-132000000D01*
X96742857Y-132028571D01*
X96771428Y-132057143D01*
X96800000Y-132114286D01*
X96800000Y-132257143D01*
X96771428Y-132314286D01*
X96742857Y-132342857D01*
X96685714Y-132371429D01*
X96514286Y-132371429D01*
X96457143Y-132342857D01*
X96428571Y-132314286D01*
X46971429Y-130385715D02*
X46685714Y-130585715D01*
X46971429Y-130728572D02*
X46371429Y-130728572D01*
X46371429Y-130500000D01*
X46400000Y-130442858D01*
X46428571Y-130414286D01*
X46485714Y-130385715D01*
X46571429Y-130385715D01*
X46628571Y-130414286D01*
X46657143Y-130442858D01*
X46685714Y-130500000D01*
X46685714Y-130728572D01*
X46428571Y-130157143D02*
X46400000Y-130128572D01*
X46371429Y-130071429D01*
X46371429Y-129928572D01*
X46400000Y-129871429D01*
X46428571Y-129842858D01*
X46485714Y-129814286D01*
X46542857Y-129814286D01*
X46628571Y-129842858D01*
X46971429Y-130185715D01*
X46971429Y-129814286D01*
X46371429Y-129442857D02*
X46371429Y-129385714D01*
X46400000Y-129328571D01*
X46428571Y-129300000D01*
X46485714Y-129271429D01*
X46600000Y-129242857D01*
X46742857Y-129242857D01*
X46857143Y-129271429D01*
X46914286Y-129300000D01*
X46942857Y-129328571D01*
X46971429Y-129385714D01*
X46971429Y-129442857D01*
X46942857Y-129500000D01*
X46914286Y-129528571D01*
X46857143Y-129557143D01*
X46742857Y-129585714D01*
X46600000Y-129585714D01*
X46485714Y-129557143D01*
X46428571Y-129528571D01*
X46400000Y-129500000D01*
X46371429Y-129442857D01*
X50571429Y-130300000D02*
X50571429Y-130642857D01*
X50571429Y-130471429D02*
X49971429Y-130471429D01*
X50057143Y-130528572D01*
X50114286Y-130585714D01*
X50142857Y-130642857D01*
X50028571Y-130071428D02*
X50000000Y-130042857D01*
X49971429Y-129985714D01*
X49971429Y-129842857D01*
X50000000Y-129785714D01*
X50028571Y-129757143D01*
X50085714Y-129728571D01*
X50142857Y-129728571D01*
X50228571Y-129757143D01*
X50571429Y-130100000D01*
X50571429Y-129728571D01*
X49971429Y-129357142D02*
X49971429Y-129299999D01*
X50000000Y-129242856D01*
X50028571Y-129214285D01*
X50085714Y-129185714D01*
X50200000Y-129157142D01*
X50342857Y-129157142D01*
X50457143Y-129185714D01*
X50514286Y-129214285D01*
X50542857Y-129242856D01*
X50571429Y-129299999D01*
X50571429Y-129357142D01*
X50542857Y-129414285D01*
X50514286Y-129442856D01*
X50457143Y-129471428D01*
X50342857Y-129499999D01*
X50200000Y-129499999D01*
X50085714Y-129471428D01*
X50028571Y-129442856D01*
X50000000Y-129414285D01*
X49971429Y-129357142D01*
X87971429Y-133785715D02*
X87685714Y-133985715D01*
X87971429Y-134128572D02*
X87371429Y-134128572D01*
X87371429Y-133900000D01*
X87400000Y-133842858D01*
X87428571Y-133814286D01*
X87485714Y-133785715D01*
X87571429Y-133785715D01*
X87628571Y-133814286D01*
X87657143Y-133842858D01*
X87685714Y-133900000D01*
X87685714Y-134128572D01*
X87428571Y-133557143D02*
X87400000Y-133528572D01*
X87371429Y-133471429D01*
X87371429Y-133328572D01*
X87400000Y-133271429D01*
X87428571Y-133242858D01*
X87485714Y-133214286D01*
X87542857Y-133214286D01*
X87628571Y-133242858D01*
X87971429Y-133585715D01*
X87971429Y-133214286D01*
X87971429Y-132642857D02*
X87971429Y-132985714D01*
X87971429Y-132814286D02*
X87371429Y-132814286D01*
X87457143Y-132871429D01*
X87514286Y-132928571D01*
X87542857Y-132985714D01*
X91671429Y-133900000D02*
X91671429Y-134242857D01*
X91671429Y-134071429D02*
X91071429Y-134071429D01*
X91157143Y-134128572D01*
X91214286Y-134185714D01*
X91242857Y-134242857D01*
X91128571Y-133671428D02*
X91100000Y-133642857D01*
X91071429Y-133585714D01*
X91071429Y-133442857D01*
X91100000Y-133385714D01*
X91128571Y-133357143D01*
X91185714Y-133328571D01*
X91242857Y-133328571D01*
X91328571Y-133357143D01*
X91671429Y-133700000D01*
X91671429Y-133328571D01*
X91071429Y-132957142D02*
X91071429Y-132899999D01*
X91100000Y-132842856D01*
X91128571Y-132814285D01*
X91185714Y-132785714D01*
X91300000Y-132757142D01*
X91442857Y-132757142D01*
X91557143Y-132785714D01*
X91614286Y-132814285D01*
X91642857Y-132842856D01*
X91671429Y-132899999D01*
X91671429Y-132957142D01*
X91642857Y-133014285D01*
X91614286Y-133042856D01*
X91557143Y-133071428D01*
X91442857Y-133099999D01*
X91300000Y-133099999D01*
X91185714Y-133071428D01*
X91128571Y-133042856D01*
X91100000Y-133014285D01*
X91071429Y-132957142D01*
X47116667Y-123016666D02*
X46416667Y-123016666D01*
X46416667Y-122850000D01*
X46450000Y-122750000D01*
X46516667Y-122683333D01*
X46583333Y-122650000D01*
X46716667Y-122616666D01*
X46816667Y-122616666D01*
X46950000Y-122650000D01*
X47016667Y-122683333D01*
X47083333Y-122750000D01*
X47116667Y-122850000D01*
X47116667Y-123016666D01*
X46416667Y-122383333D02*
X46416667Y-121950000D01*
X46683333Y-122183333D01*
X46683333Y-122083333D01*
X46716667Y-122016666D01*
X46750000Y-121983333D01*
X46816667Y-121950000D01*
X46983333Y-121950000D01*
X47050000Y-121983333D01*
X47083333Y-122016666D01*
X47116667Y-122083333D01*
X47116667Y-122283333D01*
X47083333Y-122350000D01*
X47050000Y-122383333D01*
M02*
