M48
;DRILL file {KiCad 4.0.0-rc1-stable} date 12/18/2015 1:35:43 PM
;FORMAT={-:-/ absolute / inch / decimal}
FMAT,2
INCH,TZ
T1C0.016
T2C0.020
T3C0.033
T4C0.040
T5C0.051
T6C0.120
T7C0.138
T8C0.140
%
G90
G05
M72
T1
X1.6693Y-6.2362
X1.7047Y-4.2677
X1.7047Y-5.9724
X1.7323Y-5.1654
X1.7559Y-5.3307
X1.7677Y-4.6378
X1.7874Y-5.7402
X1.8012Y-5.7795
X1.8031Y-5.4409
X1.8228Y-5.5
X1.8307Y-5.4173
X1.8622Y-5.3169
X1.8976Y-5.2165
X1.8996Y-4.6654
X1.8996Y-4.7343
X1.9449Y-5.6339
X1.9488Y-5.5512
X1.9567Y-6.122
X1.9764Y-5.7244
X2.0079Y-5.437
X2.0551Y-5.5984
X2.0866Y-4.4488
X2.0866Y-4.5276
X2.0866Y-5.189
X2.0965Y-5.3366
X2.1024Y-5.4567
X2.1043Y-5.6791
X2.1142Y-4.2047
X2.1358Y-4.3799
X2.1398Y-5.8799
X2.1417Y-5.0748
X2.1575Y-5.0472
X2.1831Y-5.1417
X2.1909Y-6.0098
X2.2244Y-5.811
X2.2264Y-5.3406
X2.2402Y-6.2598
X2.248Y-5.5512
X2.2913Y-5.0827
X2.2933Y-4.3799
X2.3051Y-6.0768
X2.3228Y-5.4528
X2.3268Y-5.7402
X2.4488Y-5.3268
X2.4646Y-5.8071
X2.4803Y-5.315
X2.4843Y-5.0827
X2.4843Y-5.2795
X2.5Y-5.4724
X2.5197Y-5.7008
X2.5354Y-4.2126
X2.5512Y-5.1142
X2.5512Y-5.2441
X2.5669Y-5.1614
X2.622Y-5.7717
X2.6299Y-5.5945
X2.6417Y-5.4134
X2.6811Y-5.8268
X2.689Y-5.8622
X2.7047Y-5.7992
X2.7087Y-5.5984
X2.7402Y-5.8701
X2.7598Y-5.0118
X2.7717Y-5.1457
X2.7756Y-5.8701
X2.7913Y-6.0787
X2.815Y-5.7008
X2.815Y-5.7362
X2.8228Y-5.2638
X2.8622Y-5.8622
X2.8976Y-5.6142
X2.9016Y-5.0118
X2.9213Y-5.4055
X2.9291Y-5.6024
X2.9291Y-6.2717
X2.9567Y-5.5787
X2.9921Y-5.6614
X2.9961Y-5.1969
X3.0039Y-4.2205
X3.0118Y-5.6339
X3.0157Y-5.0866
X3.0472Y-5.6339
X3.0591Y-5.5669
X3.063Y-5.6929
X3.063Y-6.063
X3.0669Y-5.6614
X3.0709Y-5.7283
X3.1181Y-5.8346
X3.1299Y-5.4724
X3.1339Y-5.0512
X3.1535Y-5.5709
X3.1654Y-5.4764
X3.1831Y-5.5217
X3.189Y-5.2795
X3.189Y-5.311
X3.2205Y-5.4921
X3.2205Y-5.874
X3.2244Y-5.4528
X3.2323Y-4.8189
X3.2323Y-5.5906
X3.2402Y-5.5512
X3.248Y-5.8976
X3.2677Y-5.2795
X3.2677Y-5.315
X3.2717Y-5.6457
X3.2756Y-5.9213
X3.2992Y-5.4685
X3.2992Y-5.6181
X3.311Y-5.6791
X3.3268Y-5.5906
X3.374Y-5.6969
X3.374Y-5.7323
X3.3898Y-5.4646
X3.4094Y-5.3937
X3.4291Y-5.3622
X3.4291Y-5.6969
X3.4291Y-5.7323
X3.4409Y-4.8622
X3.4921Y-5.1732
X3.5079Y-5.3858
X3.5315Y-4.2244
X3.5472Y-6.2874
X3.5945Y-5.878
X3.6024Y-5.5945
X3.6102Y-5.4606
X3.6102Y-5.6693
X3.6142Y-5.3386
X3.6693Y-5.7008
X3.6811Y-5.0039
X3.685Y-4.7008
X3.6969Y-5.7283
X3.6988Y-5.4606
X3.7047Y-5.2343
X3.7047Y-5.5866
X3.7126Y-4.9528
X3.7323Y-5.8346
X3.7441Y-5.0039
X3.7441Y-5.6024
X3.7638Y-5.9803
X3.7756Y-5.3622
X3.7815Y-4.9665
X3.7874Y-5.
X3.7913Y-5.315
X3.8031Y-4.8386
X3.815Y-5.7677
X3.8169Y-5.9213
X3.8248Y-5.3091
X3.8307Y-5.8465
X3.8346Y-5.7087
X3.8386Y-6.0039
X3.878Y-5.7087
X3.8819Y-5.3622
X3.8819Y-5.4803
X3.8937Y-4.6929
X3.9094Y-5.1614
X3.9252Y-5.5748
X3.9331Y-6.3268
X3.937Y-5.7362
X3.9567Y-5.2559
X3.9567Y-5.6024
X3.9862Y-5.372
X4.0197Y-5.5748
X4.0236Y-5.8425
X4.0276Y-5.9173
X4.0295Y-5.6831
X4.0354Y-5.6299
X4.0472Y-4.2874
X4.1378Y-6.0906
X4.1693Y-4.8543
T2
X1.6339Y-5.0787
X1.9094Y-4.9449
X2.6654Y-5.0472
X2.7165Y-5.0866
X2.9807Y-5.1075
X2.9921Y-5.0551
X3.7047Y-4.878
X3.878Y-4.9528
T3
X1.7584Y-4.4291
X1.7584Y-4.6259
X4.0684Y-4.4292
X4.0684Y-4.626
T4
X2.1425Y-4.9803
X2.2425Y-4.9803
X2.3425Y-4.9803
X2.3882Y-5.9921
X2.4882Y-5.9921
X2.5591Y-4.5063
X2.5591Y-4.6063
X2.5591Y-4.8409
X2.5591Y-4.9409
X2.5882Y-5.9921
X2.6591Y-4.5063
X2.6591Y-4.6063
X2.6591Y-4.8409
X2.6591Y-4.9409
X2.6882Y-5.9921
X2.7591Y-4.5063
X2.7591Y-4.6063
X2.7591Y-4.8409
X2.7591Y-4.9409
X2.7882Y-5.9921
X2.8591Y-4.8409
X2.8591Y-4.9409
X2.8882Y-5.9921
X2.9591Y-4.8409
X2.9591Y-4.9409
X2.9882Y-5.9921
X3.0882Y-5.9921
X3.1882Y-5.9921
X3.2882Y-5.9921
X3.3882Y-5.9921
X3.4882Y-5.9921
T5
X1.6442Y-4.3897
X1.6442Y-4.6653
X4.1826Y-4.3898
X4.1826Y-4.6654
T6
X3.1772Y-4.5571
X3.3661Y-4.4291
T7
X1.9882Y-4.2913
X1.9882Y-6.2638
X3.7598Y-4.2913
X3.7598Y-6.2598
T8
X3.3661Y-4.6748
T0
M30
